<svg xmlns="http://www.w3.org/2000/svg" width="17.334" height="20.97" viewBox="0 0 17.334 20.97">
  <g id="BTN_1" data-name="BTN 1" transform="translate(-18.004 -10.599)">
    <g id="App_Store" data-name="App Store" transform="translate(18.004 10.599)">
      <path id="Vector" d="M16.023,12.511c-.85,1.294-2.05,2.906-3.537,2.92-1.321.012-1.66-.859-3.453-.848s-2.166.864-3.487.852c-1.487-.013-2.623-1.469-3.474-2.764C-.308,9.05-.556,4.8.911,2.545A5.265,5.265,0,0,1,5.147,0C6.722,0,7.713.864,9.016.864,10.279.864,11.049,0,12.871,0a5.146,5.146,0,0,1,3.875,2.043,4.429,4.429,0,0,0,.588,8.024A14.441,14.441,0,0,1,16.023,12.511Z" transform="translate(0 5.536)" fill="#fff"/>
      <path id="Vector-2" data-name="Vector" d="M4.138,0A4.772,4.772,0,0,0,1.055,1.657,4.1,4.1,0,0,0,.047,4.848a4.035,4.035,0,0,0,3.11-1.576A4.41,4.41,0,0,0,4.138,0Z" transform="translate(8.524)" fill="#fff"/>
    </g>
  </g>
</svg>
