<svg xmlns="http://www.w3.org/2000/svg" width="21.867" height="16.47" viewBox="0 0 21.867 16.47">
  <g id="Group_22769" data-name="Group 22769" transform="translate(-10.249 -12.18)">
    <path id="huawei-svgrepo-com" d="M3.345,6.845a6.062,6.062,0,0,0-1.779,3.317v.317A3.205,3.205,0,0,0,2.68,12.667c1.666,1.63,5.7,3.679,6.648,4.143,0,0,.057.029.092-.007l.018-.036v-.039A50.217,50.217,0,0,0,3.345,6.845ZM8.79,18.2a.094.094,0,0,0-.089-.074l-6.723.238c.726,1.3,1.958,2.3,3.242,2a17.419,17.419,0,0,0,3.534-2.1c.057-.046.036-.082.036-.082Zm.074-.712c-2.954-2-8.673-5.046-8.673-5.046A4.052,4.052,0,0,0,0,13.62v.064a3.849,3.849,0,0,0,.363,1.658A4,4,0,0,0,2.495,17.35a3.843,3.843,0,0,0,1.278.281c.11.018,4.007,0,5.046,0a.1.1,0,0,0,.074-.046v-.053a.062.062,0,0,0-.029-.046ZM8.253,4.157A3.119,3.119,0,0,0,5.911,7.026V7.4a4.735,4.735,0,0,0,.146.957c.6,2.641,3.52,6.968,4.146,7.879a.089.089,0,0,0,.092.029.091.091,0,0,0,.053-.092C11.317,6.517,9.338,3.948,9.338,3.948a10.346,10.346,0,0,0-1.086.21Zm7.562,2.068a3.141,3.141,0,0,0-2.221-2.079s-.519-.128-1.068-.2c0,0-1.986,2.559-1.021,12.235a.077.077,0,0,0,.057.071.063.063,0,0,0,.089-.025c.659-.939,3.555-5.249,4.146-7.872a4.426,4.426,0,0,0,.018-2.132ZM13.156,18.132s-.064,0-.082.043c0,0-.011.064.025.092a17.684,17.684,0,0,0,3.537,2.1,1.561,1.561,0,0,0,.392.053h.124c.63-.018,1.733-.335,2.733-2.057l-6.74-.228Zm7.132-7.662c.128-1.879-1.769-3.619-1.769-3.626a50.157,50.157,0,0,0-6.075,9.84.116.116,0,0,0,.018.118l.036.007h.057c.964-.48,4.971-2.523,6.63-4.135a3.246,3.246,0,0,0,1.1-2.2Zm1.384,1.95S15.954,15.489,13,17.474a.1.1,0,0,0-.029.1s.029.053.064.053c1.057,0,5.068,0,5.168-.018a3.939,3.939,0,0,0,3.317-2.334,4.029,4.029,0,0,0,.153-2.857Z" transform="translate(10.249 8.233)" fill="#fff"/>
  </g>
</svg>
