<svg xmlns="http://www.w3.org/2000/svg" width="32.003" height="24.105" viewBox="0 0 32.003 24.105">
  <path id="huawei-svgrepo-com" d="M4.9,8.188s-2.469,2.359-2.6,4.854v.464a4.691,4.691,0,0,0,1.63,3.2c2.438,2.385,8.344,5.385,9.729,6.063,0,0,.083.042.135-.01l.026-.052v-.057A73.5,73.5,0,0,0,4.9,8.189ZM12.865,24.8a.138.138,0,0,0-.13-.109L2.9,25.042c1.063,1.906,2.865,3.37,4.745,2.932,1.281-.333,4.214-2.375,5.172-3.068.083-.068.052-.12.052-.12Zm.109-1.042C8.651,20.838.281,16.375.281,16.375A5.93,5.93,0,0,0,0,18.1V18.2a5.633,5.633,0,0,0,.531,2.427,5.854,5.854,0,0,0,3.12,2.938,5.624,5.624,0,0,0,1.87.411c.161.026,5.865,0,7.385,0a.144.144,0,0,0,.109-.068v-.078a.091.091,0,0,0-.042-.068Zm-.9-19.505a4.565,4.565,0,0,0-3.427,4.2V9a6.93,6.93,0,0,0,.214,1.4c.88,3.865,5.151,10.2,6.068,11.531a.131.131,0,0,0,.135.042.133.133,0,0,0,.078-.135c1.417-14.13-1.479-17.891-1.479-17.891a15.142,15.142,0,0,0-1.589.307ZM23.146,7.281A4.6,4.6,0,0,0,19.9,4.239s-.76-.188-1.563-.292c0,0-2.906,3.745-1.5,17.906a.113.113,0,0,0,.083.1.092.092,0,0,0,.13-.036c.964-1.375,5.2-7.682,6.068-11.521a6.478,6.478,0,0,0,.026-3.12ZM19.255,24.708s-.094,0-.12.063c0,0-.016.094.036.135a25.881,25.881,0,0,0,5.177,3.068,2.285,2.285,0,0,0,.573.078H25.1c.922-.026,2.536-.49,4-3.01l-9.865-.333ZM29.693,13.495c.188-2.75-2.589-5.3-2.589-5.307a73.408,73.408,0,0,0-8.891,14.4.17.17,0,0,0,.026.172l.052.01h.083c1.411-.7,7.276-3.693,9.7-6.052A4.75,4.75,0,0,0,29.692,13.5Zm2.026,2.854s-8.37,4.49-12.693,7.4a.15.15,0,0,0-.042.151s.042.078.094.078c1.547,0,7.417,0,7.563-.026A5.765,5.765,0,0,0,31.5,20.532a5.9,5.9,0,0,0,.224-4.182Z" transform="translate(0 -3.947)" fill="#fff"/>
</svg>
