<svg id="Group" xmlns="http://www.w3.org/2000/svg" width="25.398" height="27.755" viewBox="0 0 25.398 27.755">
  <path id="Vector" d="M0,12.519,12.532,0l4.062,4.057-14.487,8.1A2.726,2.726,0,0,1,0,12.519Z" transform="translate(2.105 15.163)" fill="#fff"/>
  <path id="Vector-2" data-name="Vector" d="M0,23.937V1.637A2.719,2.719,0,0,1,.551,0l12.8,12.787L.551,25.574A2.719,2.719,0,0,1,0,23.937Z" transform="translate(0 1.091)" fill="#fff"/>
  <path id="Vector-3" data-name="Vector" d="M4.425,8.841,0,4.421,4.425,0,8.076,2.04a2.726,2.726,0,0,1,0,4.76Z" transform="translate(15.925 9.457)" fill="#fff"/>
  <path id="Vector-4" data-name="Vector" d="M0,.074A2.722,2.722,0,0,1,.624,0,2.73,2.73,0,0,1,2.106.437l14.487,8.1-4.062,4.057Z" transform="translate(2.106)" fill="#fff"/>
</svg>
