<svg xmlns="http://www.w3.org/2000/svg" width="25.369" height="30.691" viewBox="0 0 25.369 30.691">
  <g id="Group_22776" data-name="Group 22776" transform="translate(8 1.487)">
    <path id="Vector" d="M23.45,18.31c-1.245,1.894-3,4.253-5.177,4.273-1.933.018-2.43-1.257-5.054-1.242s-3.171,1.264-5.1,1.246c-2.176-.019-3.838-2.15-5.084-4.045C-.451,13.246-.814,7.03,1.333,3.725A7.706,7.706,0,0,1,7.533,0c2.305,0,3.755,1.263,5.662,1.263C15.044,1.265,16.171,0,18.837,0a7.531,7.531,0,0,1,5.672,2.99,6.482,6.482,0,0,0,.86,11.743A21.135,21.135,0,0,1,23.45,18.31Z" transform="translate(-8 6.615)" fill="#fff"/>
    <path id="Vector-2" data-name="Vector" d="M6.057,0A6.984,6.984,0,0,0,1.545,2.425,5.994,5.994,0,0,0,.069,7.095,5.9,5.9,0,0,0,4.621,4.788,6.455,6.455,0,0,0,6.057,0Z" transform="translate(4.475 -1.487)" fill="#fff"/>
  </g>
</svg>
