<svg xmlns="http://www.w3.org/2000/svg" width="155.35" height="155.35" viewBox="0 0 155.35 155.35">
  <g id="Group_21843" data-name="Group 21843" transform="translate(-891.327 -739.008)">
    <circle id="Ellipse_11" data-name="Ellipse 11" cx="54.924" cy="54.924" r="54.924" transform="translate(891.327 816.683) rotate(-45)" fill="#f7f7f7"/>
    <g id="Group_21799" data-name="Group 21799" transform="translate(933.336 764.768)">
      <path id="Path_81474" data-name="Path 81474" d="M626.809,119.749a.345.345,0,0,1-.233-.093c-.4-.393-.792-.792-1.172-1.2a.334.334,0,0,1,.486-.459c.373.4.759.792,1.152,1.178a.33.33,0,0,1,0,.473.338.338,0,0,1-.24.1Z" transform="translate(-615.525 -56.699)" fill="#1d1a1e"/>
      <path id="Path_81475" data-name="Path 81475" d="M618.606,85.35a.328.328,0,0,1-.26-.126c-.672-.865-1.318-1.771-1.911-2.69a.332.332,0,1,1,.559-.36c.579.9,1.212,1.791,1.877,2.643a.33.33,0,0,1-.06.466.34.34,0,0,1-.206.073Zm58.679-1.771a.312.312,0,0,1-.186-.06.333.333,0,0,1-.087-.466c.612-.885,1.185-1.811,1.711-2.75a.332.332,0,1,1,.579.326c-.539.952-1.125,1.9-1.744,2.8a.336.336,0,0,1-.273.146Zm-62.221-3.722a.332.332,0,0,1-.293-.18c-.506-.972-.979-1.977-1.4-2.989a.331.331,0,0,1,.613-.253c.413.992.872,1.984,1.371,2.936a.33.33,0,0,1-.14.446.309.309,0,0,1-.153.04Zm65.423-1.971a.348.348,0,0,1-.14-.027.334.334,0,0,1-.166-.439c.439-.979.839-1.991,1.192-3.009a.335.335,0,0,1,.633.22c-.359,1.039-.766,2.07-1.212,3.069a.337.337,0,0,1-.306.193Zm-67.92-4.061a.342.342,0,0,1-.32-.233c-.326-1.045-.606-2.117-.839-3.189a.33.33,0,0,1,.646-.14c.226,1.052.5,2.11.819,3.129a.343.343,0,0,1-.22.419.259.259,0,0,1-.1.013Zm70.044-2.117a.454.454,0,0,1-.08-.007.337.337,0,0,1-.246-.4c.253-1.045.466-2.11.632-3.176a.333.333,0,0,1,.659.1c-.166,1.085-.379,2.177-.639,3.236a.334.334,0,0,1-.326.253ZM611.2,67.442a.342.342,0,0,1-.333-.293c-.133-1.079-.22-2.19-.253-3.289a.339.339,0,0,1,.32-.346.312.312,0,0,1,.346.32c.033,1.079.12,2.164.246,3.229a.34.34,0,0,1-.293.373h-.04Zm72.394-2.19h-.02a.33.33,0,0,1-.313-.353c.047-.732.067-1.485.067-2.23,0-.34,0-.672-.013-1.012a.33.33,0,0,1,.326-.34h.007a.332.332,0,0,1,.333.326c.007.34.013.686.013,1.025,0,.759-.027,1.525-.067,2.27a.334.334,0,0,1-.333.313Zm-72.607-4.334h-.02a.33.33,0,0,1-.313-.353c.06-1.1.173-2.2.333-3.282a.333.333,0,0,1,.659.1c-.153,1.059-.266,2.144-.326,3.222A.33.33,0,0,1,610.983,60.917Zm72.427-2.19a.337.337,0,0,1-.333-.293c-.127-1.065-.3-2.144-.519-3.2a.333.333,0,0,1,.652-.133c.226,1.072.406,2.164.533,3.256a.334.334,0,0,1-.293.366Zm-71.475-4.267a.453.453,0,0,1-.08-.007.337.337,0,0,1-.246-.4c.253-1.059.566-2.13.919-3.169a.331.331,0,0,1,.626.213c-.346,1.025-.646,2.07-.9,3.109a.334.334,0,0,1-.326.253Zm70.13-2.124a.342.342,0,0,1-.32-.233c-.313-1.032-.679-2.057-1.085-3.049a.334.334,0,0,1,.18-.433.328.328,0,0,1,.433.18c.413,1.012.786,2.057,1.105,3.109a.333.333,0,0,1-.22.413.259.259,0,0,1-.1.013Zm-68.033-4.061a.3.3,0,0,1-.133-.027.329.329,0,0,1-.166-.439c.446-1,.939-2,1.471-2.956a.332.332,0,1,1,.579.326c-.526.939-1.012,1.917-1.445,2.9A.333.333,0,0,1,614.032,48.275ZM679.6,46.291a.332.332,0,0,1-.293-.18c-.5-.959-1.039-1.9-1.618-2.8a.332.332,0,1,1,.559-.36c.586.919,1.138,1.884,1.644,2.856a.328.328,0,0,1-.14.446A.309.309,0,0,1,679.6,46.291ZM617.2,42.562a.312.312,0,0,1-.186-.06.327.327,0,0,1-.086-.459c.619-.905,1.278-1.8,1.977-2.643a.331.331,0,0,1,.513.419c-.679.832-1.332,1.7-1.937,2.6a.335.335,0,0,1-.273.146Zm58.879-1.778a.351.351,0,0,1-.266-.126c-.659-.852-1.358-1.684-2.09-2.47a.336.336,0,0,1,.02-.473.33.33,0,0,1,.473.02c.746.806,1.465,1.651,2.13,2.517a.329.329,0,0,1-.266.533Zm-54.731-3.269a.345.345,0,0,1-.233-.093.33.33,0,0,1,0-.473c.766-.779,1.578-1.538,2.417-2.25a.335.335,0,1,1,.433.513c-.819.7-1.618,1.438-2.37,2.2a.338.338,0,0,1-.24.1ZM671.646,36a.334.334,0,0,1-.226-.087c-.806-.726-1.644-1.418-2.5-2.064a.333.333,0,1,1,.4-.533c.872.652,1.731,1.358,2.543,2.1a.336.336,0,0,1,.027.473A.33.33,0,0,1,671.646,36Zm-45.324-2.71a.329.329,0,0,1-.273-.14.332.332,0,0,1,.08-.466c.892-.632,1.831-1.232,2.776-1.778a.331.331,0,1,1,.333.573c-.932.539-1.851,1.125-2.723,1.751a.347.347,0,0,1-.193.06Zm40.1-1.212a.28.28,0,0,1-.173-.053c-.912-.566-1.864-1.1-2.829-1.578a.332.332,0,0,1,.3-.593c.979.493,1.944,1.032,2.883,1.611a.336.336,0,0,1-.173.619Zm-34.453-2.064a.328.328,0,0,1-.3-.193.332.332,0,0,1,.16-.439c.992-.459,2.024-.885,3.049-1.252a.333.333,0,1,1,.226.626c-1.012.36-2.017.779-3,1.232a.358.358,0,0,1-.14.033Zm28.614-.865a.377.377,0,0,1-.12-.02c-1-.393-2.031-.746-3.062-1.045a.328.328,0,0,1-.226-.413.337.337,0,0,1,.413-.226c1.052.306,2.1.666,3.122,1.065a.331.331,0,0,1,.186.433.337.337,0,0,1-.313.213Zm-22.469-1.338a.328.328,0,0,1-.32-.246.332.332,0,0,1,.24-.406c1.059-.273,2.144-.506,3.229-.686a.331.331,0,1,1,.113.652c-1.059.173-2.13.4-3.169.672a.337.337,0,0,1-.087.013Zm16.2-.486h-.067c-1.052-.206-2.13-.366-3.2-.479a.335.335,0,0,1,.067-.666c1.092.113,2.19.28,3.262.486a.333.333,0,0,1-.067.659Zm-9.767-.579a.333.333,0,0,1-.027-.666c1.092-.08,2.2-.113,3.3-.1a.326.326,0,0,1,.326.34.333.333,0,0,1-.333.326h0c-1.079-.013-2.164.02-3.236.093h-.027Z" transform="translate(-610.61 -25.976)" fill="#1d1a1e"/>
      <path id="Path_81476" data-name="Path 81476" d="M705.892,117.455a.333.333,0,0,1-.246-.559c.373-.406.732-.819,1.085-1.245a.331.331,0,0,1,.506.426c-.359.433-.726.852-1.105,1.265a.323.323,0,0,1-.246.107Z" transform="translate(-642.346 -55.91)" fill="#1d1a1e"/>
    </g>
    <path id="Path_81477" data-name="Path 81477" d="M682.622,163.306H614.043a.333.333,0,1,1,0-.666h68.579a.333.333,0,1,1,0,.666Z" transform="translate(321.69 693.112)" fill="#1d1a1e"/>
    <circle id="Ellipse_12" data-name="Ellipse 12" cx="10.559" cy="10.559" r="10.559" transform="translate(996.696 796.724) rotate(-13.37)" fill="#ccb043" opacity="0.5"/>
    <circle id="Ellipse_13" data-name="Ellipse 13" cx="10.559" cy="10.559" r="10.559" transform="matrix(0.426, -0.905, 0.905, 0.426, 994.129, 808.347)" fill="#ccb043"/>
    <path id="Path_81478" data-name="Path 81478" d="M717.716,68.592a10.544,10.544,0,0,1,10.539,10.253c0-.1.013-.206.013-.306a10.559,10.559,0,1,0-21.118,0c0,.107.013.206.013.306A10.553,10.553,0,0,1,717.7,68.592Z" transform="translate(290.458 724.752)" fill="#fff"/>
    <path id="Path_81479" data-name="Path 81479" d="M717.552,89.263a10.892,10.892,0,1,1,10.892-10.892A10.9,10.9,0,0,1,717.552,89.263Zm0-21.118a10.226,10.226,0,1,0,10.226,10.226A10.237,10.237,0,0,0,717.552,68.146Z" transform="translate(290.621 724.919)" fill="#1d1a1e"/>
    <path id="Path_81480" data-name="Path 81480" d="M723.265,86.044H717.1a.669.669,0,0,1-.652-.526l-.806-3.761a.667.667,0,0,1,1.3-.28l.692,3.236h5.066l1.185-6.97a.666.666,0,0,1,.659-.553h1.565a.666.666,0,1,1,0,1.331h-1l-1.185,6.97a.666.666,0,0,1-.659.553Z" transform="translate(287.624 721.674)" fill="#fff"/>
    <path id="Path_81481" data-name="Path 81481" d="M723.905,84.171H716.3a.666.666,0,0,1,0-1.331h7.61a.666.666,0,0,1,0,1.331Z" transform="translate(287.623 719.785)" fill="#fff"/>
    <path id="Path_81482" data-name="Path 81482" d="M723.78,87.161h-6.844a.666.666,0,1,1,0-1.331h6.844a.666.666,0,1,1,0,1.331Z" transform="translate(287.409 718.786)" fill="#fff"/>
    <path id="Path_81483" data-name="Path 81483" d="M720.635,92.412a.692.692,0,1,1-.692-.692A.7.7,0,0,1,720.635,92.412Z" transform="translate(286.413 716.817)" fill="#fff"/>
    <circle id="Ellipse_14" data-name="Ellipse 14" cx="0.692" cy="0.692" r="0.692" transform="translate(1008.479 808.537)" fill="#fff"/>
    <path id="Path_81484" data-name="Path 81484" d="M635.088,22.016a.33.33,0,0,1-.333-.333,3.047,3.047,0,0,0-.24-1.192,2.924,2.924,0,0,0-.659-.972,3.138,3.138,0,0,0-.972-.659,3.048,3.048,0,0,0-1.192-.24.333.333,0,1,1,0-.666,3.048,3.048,0,0,0,1.192-.24,2.925,2.925,0,0,0,.972-.659,3.137,3.137,0,0,0,.659-.972,3.047,3.047,0,0,0,.24-1.192.333.333,0,0,1,.666,0,3.047,3.047,0,0,0,.24,1.192,3.009,3.009,0,0,0,.652.972,3.138,3.138,0,0,0,.972.659,3.048,3.048,0,0,0,1.192.24.333.333,0,1,1,0,.666,3.048,3.048,0,0,0-1.192.24,2.925,2.925,0,0,0-.972.659,3.009,3.009,0,0,0-.652.972,3.047,3.047,0,0,0-.24,1.192.33.33,0,0,1-.333.333Zm-1.851-3.728a3.755,3.755,0,0,1,1.851,1.851,3.756,3.756,0,0,1,1.851-1.851,3.756,3.756,0,0,1-1.851-1.851,3.755,3.755,0,0,1-1.851,1.851Z" transform="translate(315.79 742.608)" fill="#1d1a1e"/>
    <path id="Path_81485" data-name="Path 81485" d="M616.553,25.612h0v-.32l.033.32Zm0,0a2.828,2.828,0,0,1-.7-.087l.167-.626a2.048,2.048,0,0,0,.532.067Zm.712-.093-.166-.626a2.194,2.194,0,0,0,.5-.206l.326.559a2.658,2.658,0,0,1-.652.273Zm-2.064-.266a2.716,2.716,0,0,1-.566-.433l.453-.459a1.9,1.9,0,0,0,.433.326l-.319.559Zm3.282-.439-.459-.459a1.9,1.9,0,0,0,.326-.433l.559.326a2.965,2.965,0,0,1-.433.566Zm-4.281-.553a2.663,2.663,0,0,1-.273-.652l.626-.173a2.326,2.326,0,0,0,.206.5Zm4.986-.672-.626-.166a2.063,2.063,0,0,0,.067-.539l.646-.027v.027a2.813,2.813,0,0,1-.093.706ZM613.83,22.9v-.013a2.7,2.7,0,0,1,.087-.692l.626.166a1.963,1.963,0,0,0-.067.526l-.646.013Zm4.727-.573a2.046,2.046,0,0,0-.213-.5l.553-.326a2.968,2.968,0,0,1,.28.652l-.626.173Zm-3.808-.466-.559-.32a2.741,2.741,0,0,1,.426-.566l.459.453A1.9,1.9,0,0,0,614.749,21.858Zm3.262-.459a1.889,1.889,0,0,0-.433-.326l.32-.559a2.523,2.523,0,0,1,.566.426Zm-2.51-.306-.326-.559a2.965,2.965,0,0,1,.652-.28l.173.626A2.054,2.054,0,0,0,615.5,21.092Zm1.571-.22a1.949,1.949,0,0,0-.519-.067l-.02-.646h.02a2.567,2.567,0,0,1,.679.087Z" transform="translate(321.65 740.736)" fill="#1d1a1e"/>
    <g id="Group_21800" data-name="Group 21800" transform="translate(932.417 771.328)">
      <path id="Path_81486" data-name="Path 81486" d="M612.713,37.381a.312.312,0,0,1-.233-.1.33.33,0,0,1,0-.473l.879-.879a.334.334,0,1,1,.473.473l-.879.879a.334.334,0,0,1-.233.1Z" transform="translate(-610.283 -35.83)" fill="#ccb043"/>
      <path id="Path_81487" data-name="Path 81487" d="M610.442,37.4a.312.312,0,0,1-.233-.1l-.879-.879a.334.334,0,0,1,.473-.473l.879.879a.33.33,0,0,1,0,.473.334.334,0,0,1-.233.1Z" transform="translate(-609.23 -35.837)" fill="#ccb043"/>
      <path id="Path_81488" data-name="Path 81488" d="M609.583,40.541a.312.312,0,0,1-.233-.1.329.329,0,0,1,0-.473l.879-.879a.334.334,0,0,1,.473.473l-.879.879a.335.335,0,0,1-.233.1Z" transform="translate(-609.237 -36.886)" fill="#ccb043"/>
      <path id="Path_81489" data-name="Path 81489" d="M613.6,40.531a.312.312,0,0,1-.233-.1l-.879-.879a.334.334,0,0,1,.473-.473l.879.879a.33.33,0,0,1,0,.473.334.334,0,0,1-.233.1Z" transform="translate(-610.286 -36.883)" fill="#ccb043"/>
    </g>
    <g id="Group_21801" data-name="Group 21801" transform="translate(957.049 816.149)">
      <path id="Path_81490" data-name="Path 81490" d="M686.688,153.488,684.8,148.2l.666-11.451a40.687,40.687,0,0,0-2.463-16.491l-6.145-16.6v24.433H646.729s-.453,15.133,16.171,27.835l1.937,4.9,21.857-7.337Z" transform="translate(-646.396 -103.319)" fill="#fff"/>
      <path id="Path_81491" data-name="Path 81491" d="M664.664,160.985a.322.322,0,0,1-.306-.213l-1.9-4.813c-16.491-12.649-16.231-27.9-16.224-28.055a.327.327,0,0,1,.333-.32h29.8v-24.1a.329.329,0,0,1,.273-.326.342.342,0,0,1,.373.213l6.152,16.6a40.771,40.771,0,0,1,2.483,16.624l-.666,11.384,1.857,5.226a.333.333,0,0,1-.626.226l-1.884-5.293a.43.43,0,0,1-.02-.133l.666-11.451a40.04,40.04,0,0,0-2.443-16.357l-5.506-14.86v22.576a.33.33,0,0,1-.333.333h-29.8c.067,2.25,1.085,15.812,16.038,27.236a.357.357,0,0,1,.107.14l1.937,4.9a.331.331,0,0,1-.186.433.389.389,0,0,1-.12.027Z" transform="translate(-646.229 -103.153)" fill="#1d1a1e"/>
    </g>
    <g id="Group_21802" data-name="Group 21802" transform="translate(946.742 805.57)">
      <path id="Path_81492" data-name="Path 81492" d="M644.606,89.976s-7.09-1.844-9.993-2.2c-2.923-.359-6.231,5.925.972,8.2a75.91,75.91,0,0,0,7.942,2.2h.206Z" transform="translate(-630.916 -87.429)" fill="#fff"/>
      <path id="Path_81493" data-name="Path 81493" d="M643.564,98.346h-.206a70.729,70.729,0,0,1-8.042-2.217c-3.2-1.005-4.887-3.036-4.52-5.426.306-1.977,2.044-3.628,3.682-3.422,2.889.353,9.74,2.137,10.033,2.21a.329.329,0,0,1,.246.36l-.872,8.2a.338.338,0,0,1-.333.3ZM634.2,87.934c-1.245,0-2.5,1.318-2.743,2.876-.153.979-.053,3.389,4.061,4.687,4.853,1.531,7.164,2.044,7.749,2.164l.806-7.59c-1.338-.346-7.15-1.811-9.667-2.124-.067-.007-.133-.013-.2-.013Z" transform="translate(-630.746 -87.264)" fill="#1d1a1e"/>
    </g>
    <g id="Group_21803" data-name="Group 21803" transform="translate(946.156 817.361)">
      <path id="Path_81494" data-name="Path 81494" d="M643.726,107.686s-7.09-1.844-9.993-2.2c-2.923-.36-6.231,5.925.972,8.2a75.908,75.908,0,0,0,7.942,2.2h.206Z" transform="translate(-630.036 -105.139)" fill="#fff"/>
      <path id="Path_81495" data-name="Path 81495" d="M642.684,116.056h-.206a70.737,70.737,0,0,1-8.042-2.217c-3.2-1.005-4.887-3.036-4.52-5.426.306-1.977,2.044-3.628,3.682-3.422,2.889.353,9.74,2.137,10.033,2.21a.329.329,0,0,1,.246.36l-.872,8.2a.338.338,0,0,1-.333.3Zm-9.36-10.412c-1.245,0-2.5,1.318-2.743,2.876-.153.979-.053,3.389,4.061,4.687,4.853,1.531,7.163,2.044,7.749,2.164l.806-7.59c-1.338-.346-7.15-1.811-9.667-2.124-.067-.007-.133-.013-.2-.013Z" transform="translate(-629.866 -104.974)" fill="#1d1a1e"/>
    </g>
    <g id="Group_21804" data-name="Group 21804" transform="translate(947.527 825.863)">
      <path id="Path_81496" data-name="Path 81496" d="M645.786,120.466s-7.09-1.844-9.993-2.2c-2.923-.36-6.231,5.925.972,8.2a75.925,75.925,0,0,0,7.943,2.2h.206Z" transform="translate(-632.095 -117.912)" fill="#fff"/>
      <path id="Path_81497" data-name="Path 81497" d="M644.744,128.826h-.206a70.735,70.735,0,0,1-8.042-2.217c-3.2-1.005-4.887-3.036-4.52-5.426.306-1.977,2.037-3.628,3.682-3.422,2.889.353,9.74,2.137,10.033,2.21a.329.329,0,0,1,.246.36l-.872,8.2a.338.338,0,0,1-.333.3Zm-9.36-10.412c-1.245,0-2.5,1.318-2.743,2.876-.153.979-.053,3.389,4.061,4.687,4.853,1.531,7.17,2.044,7.749,2.164l.806-7.59c-1.338-.346-7.15-1.811-9.667-2.124-.067-.007-.133-.013-.2-.013Z" transform="translate(-631.926 -117.744)" fill="#1d1a1e"/>
    </g>
    <path id="Path_81498" data-name="Path 81498" d="M602.236,163.156h-7.483a.333.333,0,1,1,0-.666h7.483a.333.333,0,1,1,0,.666Z" transform="translate(328.138 693.162)" fill="#1d1a1e"/>
    <path id="Path_81499" data-name="Path 81499" d="M725.806,163.306h-2.543a.333.333,0,0,1,0-.666h2.543a.333.333,0,1,1,0,.666Z" transform="translate(285.183 693.112)" fill="#1d1a1e"/>
    <g id="Group_21806" data-name="Group 21806" transform="translate(950.539 774.138)">
      <path id="Path_81500" data-name="Path 81500" d="M679.065,125.677V107.862l-2.2-5.952v24.433H646.73a37.814,37.814,0,0,0,1.4,7.949c.246.02.493.04.739.04h21.537A8.654,8.654,0,0,0,679.065,125.677Z" transform="translate(-639.886 -60.727)" fill="#ccb043"/>
      <rect id="Rectangle_255" data-name="Rectangle 255" width="38.847" height="72.121" rx="13" transform="translate(0.333 0.333)" fill="#f7f7f7"/>
      <path id="Path_81501" data-name="Path 81501" d="M667.142,142.8H645.6a8.655,8.655,0,0,1-8.655-8.655V135.3a8.655,8.655,0,0,0,8.655,8.655h21.537A8.654,8.654,0,0,0,675.8,135.3V134.15A8.654,8.654,0,0,1,667.142,142.8Z" transform="translate(-636.617 -71.503)" fill="#ccb043"/>
      <path id="Path_81502" data-name="Path 81502" d="M667.142,40.55H645.6A8.655,8.655,0,0,0,636.95,49.2v.579a8.655,8.655,0,0,1,8.655-8.655h21.537a8.654,8.654,0,0,1,8.655,8.655V49.2A8.654,8.654,0,0,0,667.142,40.55Z" transform="translate(-636.617 -40.217)" fill="#fff"/>
      <g id="Group_21805" data-name="Group 21805" transform="translate(2.889 9.613)">
        <rect id="Rectangle_256" data-name="Rectangle 256" width="33.081" height="55.963" rx="2.07" transform="translate(0.326 0.333)" fill="#f5f5f5"/>
        <path id="Path_81503" data-name="Path 81503" d="M672.819,111.119H642.5a1.71,1.71,0,0,1-1.711-1.711V56.2A1.71,1.71,0,0,1,642.5,54.49h30.318A1.71,1.71,0,0,1,674.53,56.2v53.207A1.71,1.71,0,0,1,672.819,111.119ZM642.5,55.156a1.043,1.043,0,0,0-1.045,1.045v53.207a1.047,1.047,0,0,0,1.045,1.045h30.318a1.043,1.043,0,0,0,1.045-1.045V56.2a1.047,1.047,0,0,0-1.045-1.045H642.5Z" transform="translate(-640.79 -54.49)" fill="#1d1a1e"/>
      </g>
      <path id="Path_81504" data-name="Path 81504" d="M666.975,112.837H645.438a9,9,0,0,1-8.988-8.988V49.038a9,9,0,0,1,8.988-8.988h15.339a.333.333,0,1,1,0,.666H645.438a8.333,8.333,0,0,0-8.322,8.322v54.811a8.333,8.333,0,0,0,8.322,8.322h21.537a8.333,8.333,0,0,0,8.322-8.322V49.038a8.333,8.333,0,0,0-8.322-8.322h-3.209a.333.333,0,0,1,0-.666h3.209a9,9,0,0,1,8.988,8.988v54.811A9,9,0,0,1,666.975,112.837Z" transform="translate(-636.45 -40.05)" fill="#1d1a1e"/>
      <path id="Path_81505" data-name="Path 81505" d="M666.677,45.678a1.1,1.1,0,1,1-1.1-1.1A1.1,1.1,0,0,1,666.677,45.678Z" transform="translate(-645.819 -41.564)" fill="#1d1a1e"/>
      <path id="Path_81506" data-name="Path 81506" d="M668.108,50.486h-8.635a.333.333,0,1,1,0-.666h8.635a.333.333,0,1,1,0,.666Z" transform="translate(-644.034 -43.316)" fill="#1d1a1e"/>
      <path id="Path_81507" data-name="Path 81507" d="M644.479,57.639A.479.479,0,1,1,644,57.16.477.477,0,0,1,644.479,57.639Z" transform="translate(-638.813 -45.769)" fill="#1d1a1e"/>
      <path id="Path_81508" data-name="Path 81508" d="M646.639,57.639a.479.479,0,1,1-.479-.479A.477.477,0,0,1,646.639,57.639Z" transform="translate(-639.535 -45.769)" fill="#1d1a1e"/>
      <path id="Path_81509" data-name="Path 81509" d="M648.8,57.639a.479.479,0,1,1-.479-.479A.477.477,0,0,1,648.8,57.639Z" transform="translate(-640.257 -45.769)" fill="#1d1a1e"/>
      <path id="Path_81510" data-name="Path 81510" d="M655.3,58.046h-3.655a.333.333,0,1,1,0-.666H655.3a.333.333,0,1,1,0,.666Z" transform="translate(-641.417 -45.843)" fill="#1d1a1e"/>
      <path id="Path_81511" data-name="Path 81511" d="M684.832,58.284h-2.849a.33.33,0,0,1-.333-.333v-.959a.33.33,0,0,1,.333-.333h2.849a.33.33,0,0,1,.333.333v.959A.33.33,0,0,1,684.832,58.284Zm-2.517-.666H684.5v-.293h-2.184Z" transform="translate(-651.558 -45.602)" fill="#1d1a1e"/>
      <rect id="Rectangle_257" data-name="Rectangle 257" width="0.599" height="0.599" transform="translate(33.274 11.571)" fill="#ccb043"/>
      <path id="Path_81512" data-name="Path 81512" d="M667.243,77.946a.33.33,0,0,1-.333-.333V75.4a.333.333,0,0,1,.666,0v2.21A.33.33,0,0,1,667.243,77.946Z" transform="translate(-646.631 -51.755)" fill="#ccb043"/>
      <path id="Path_81513" data-name="Path 81513" d="M663.337,79.067a.312.312,0,0,1-.233-.1l-1.684-1.684a.334.334,0,0,1,.473-.473l1.684,1.684a.33.33,0,0,1,0,.473.334.334,0,0,1-.233.1Z" transform="translate(-644.763 -52.304)" fill="#ccb043"/>
      <path id="Path_81514" data-name="Path 81514" d="M670.313,79.067a.312.312,0,0,1-.233-.1.329.329,0,0,1,0-.473l1.684-1.684a.334.334,0,0,1,.473.473l-1.684,1.684a.334.334,0,0,1-.233.1Z" transform="translate(-647.657 -52.304)" fill="#ccb043"/>
      <path id="Path_81515" data-name="Path 81515" d="M650.412,43.3h-.819a.333.333,0,1,1,0-.666h.819a.333.333,0,1,1,0,.666Z" transform="translate(-640.732 -40.912)" fill="#fff"/>
      <path id="Path_81516" data-name="Path 81516" d="M657.7,43.3h-4.434a.333.333,0,1,1,0-.666H657.7a.333.333,0,1,1,0,.666Z" transform="translate(-641.958 -40.912)" fill="#fff"/>
      <path id="Path_81517" data-name="Path 81517" d="M667.186,143.506h-4.853a.333.333,0,1,1,0-.666h4.853a.333.333,0,1,1,0,.666Z" transform="translate(-644.99 -74.407)" fill="#ccb043"/>
      <circle id="Ellipse_15" data-name="Ellipse 15" cx="9.607" cy="9.607" r="9.607" transform="translate(11.304 28.947)" fill="#ccb043" opacity="0.5"/>
      <circle id="Ellipse_16" data-name="Ellipse 16" cx="9.607" cy="9.607" r="9.607" transform="translate(10.685 27.695)" fill="#ccb043"/>
      <path id="Path_81518" data-name="Path 81518" d="M662.11,82.366A9.608,9.608,0,0,1,671.7,91.62c0-.12.02-.233.02-.353a9.607,9.607,0,1,0-19.214,0c0,.12.013.233.02.353a9.6,9.6,0,0,1,9.593-9.254Z" transform="translate(-641.818 -53.958)" fill="#fff"/>
      <path id="Path_81519" data-name="Path 81519" d="M661.94,101.039a9.94,9.94,0,1,1,9.94-9.94A9.953,9.953,0,0,1,661.94,101.039Zm0-19.22a9.274,9.274,0,1,0,9.274,9.274A9.285,9.285,0,0,0,661.94,81.819Z" transform="translate(-641.648 -53.791)" fill="#1d1a1e"/>
      <path id="Path_81520" data-name="Path 81520" d="M662.946,100.042a7.936,7.936,0,1,1,7.936-7.936A7.943,7.943,0,0,1,662.946,100.042Zm0-15.545a7.6,7.6,0,1,0,7.6,7.6A7.609,7.609,0,0,0,662.946,84.5Z" transform="translate(-642.654 -54.797)" fill="#fff"/>
      <path id="Path_81521" data-name="Path 81521" d="M668.71,94.7a2.688,2.688,0,0,1-.859,2.064,3.684,3.684,0,0,1-2.244.925l-.067,1.678h-1.358l.067-1.7a3.8,3.8,0,0,1-1.8-.7,2.738,2.738,0,0,1-.925-1.212v-.972H663.2a1.6,1.6,0,0,0,.406.672,1.715,1.715,0,0,0,.719.4l.106-2.457-.113-.027a4.1,4.1,0,0,1-2.044-.952,2.432,2.432,0,0,1-.712-1.844,2.652,2.652,0,0,1,.845-2.064,3.614,3.614,0,0,1,2.244-.872l.067-1.445h1.358l-.067,1.511a3.486,3.486,0,0,1,1.591.639,2.09,2.09,0,0,1,.786,1.205v.985h-1.691a2.122,2.122,0,0,0-.26-.586,1.034,1.034,0,0,0-.493-.406l-.093,2.277h.013a4.328,4.328,0,0,1,2.077.985,2.457,2.457,0,0,1,.766,1.9Zm-5.133-4.241a.955.955,0,0,0,.2.6,1.432,1.432,0,0,0,.732.433l.08-2.07a1.355,1.355,0,0,0-.759.359.958.958,0,0,0-.253.672Zm3.116,4.354a1.039,1.039,0,0,0-.206-.659,1.632,1.632,0,0,0-.712-.466l-.093,2.21a1.318,1.318,0,0,0,.752-.366A1.015,1.015,0,0,0,666.693,94.811Z" transform="translate(-644.83 -55.472)" fill="#fff"/>
    </g>
    <path id="Path_81522" data-name="Path 81522" d="M688.595,131.778s-3.868-13.7-5.825-15.472-11.664-5.219-13.861-6.025c-3.349-1.225-6.837,4.181-2.5,7.5,3.848,2.949,7.243,6.2,7.243,6.2l.706,9.633a20.434,20.434,0,0,0-3.236,19.673Z" transform="translate(304.752 710.672)" fill="#fff"/>
    <path id="Path_81523" data-name="Path 81523" d="M670.941,153.464a.33.33,0,0,1-.313-.22,20.955,20.955,0,0,1,3.209-19.893l-.692-9.374c-.566-.539-3.682-3.455-7.124-6.092a4.666,4.666,0,0,1-1.584-6.138,3.642,3.642,0,0,1,4.407-1.937l.539.2c4.96,1.8,11.744,4.374,13.428,5.892,2,1.811,5.765,15.066,5.925,15.625a.335.335,0,1,1-.646.18c-1.072-3.788-4.181-13.914-5.732-15.312-1.778-1.6-10.379-4.733-13.208-5.759l-.539-.2a3.024,3.024,0,0,0-3.6,1.631,4.035,4.035,0,0,0,1.4,5.293c3.815,2.923,7.237,6.191,7.27,6.225a.336.336,0,0,1,.1.213l.706,9.633a.4.4,0,0,1-.08.246,20.271,20.271,0,0,0-3.169,19.34.334.334,0,0,1-.2.426.338.338,0,0,1-.113.02Z" transform="translate(304.923 710.837)" fill="#1d1a1e"/>
    <rect id="Rectangle_258" data-name="Rectangle 258" width="25.791" height="16.87" rx="2.77" transform="translate(919.275 785.196)" fill="#ccb043" opacity="0.5"/>
    <rect id="Rectangle_259" data-name="Rectangle 259" width="25.791" height="16.87" rx="2.77" transform="translate(918.044 783.964)" fill="#fff"/>
    <path id="Path_81524" data-name="Path 81524" d="M611.587,77.374h-22.1a1.844,1.844,0,0,1-1.844-1.844v1.232a1.844,1.844,0,0,0,1.844,1.844h22.1a1.844,1.844,0,0,0,1.844-1.844V75.53A1.844,1.844,0,0,1,611.587,77.374Z" transform="translate(330.404 722.229)" fill="#ccb043"/>
    <path id="Path_81525" data-name="Path 81525" d="M611.42,71.846h-22.1a2.182,2.182,0,0,1-2.177-2.177V56.487a2.182,2.182,0,0,1,2.177-2.177h22.1a2.182,2.182,0,0,1,2.177,2.177V69.669A2.182,2.182,0,0,1,611.42,71.846Zm-22.1-16.87a1.514,1.514,0,0,0-1.511,1.511V69.669a1.514,1.514,0,0,0,1.511,1.511h22.1a1.514,1.514,0,0,0,1.511-1.511V56.487a1.514,1.514,0,0,0-1.511-1.511Z" transform="translate(330.571 729.321)" fill="#1d1a1e"/>
    <path id="Path_81526" data-name="Path 81526" d="M612.958,64.086H587.473a.333.333,0,0,1,0-.666h25.485a.333.333,0,0,1,0,.666Z" transform="translate(330.571 726.276)" fill="#1d1a1e"/>
    <g id="Group_21807" data-name="Group 21807" transform="translate(920.833 794.397)">
      <path id="Path_81527" data-name="Path 81527" d="M595.625,71.146h-3.462a.333.333,0,1,1,0-.666h3.462a.333.333,0,1,1,0,.666Z" transform="translate(-591.83 -70.48)" fill="#ccb043"/>
      <path id="Path_81528" data-name="Path 81528" d="M603.275,71.146h-3.462a.333.333,0,1,1,0-.666h3.462a.333.333,0,1,1,0,.666Z" transform="translate(-594.387 -70.48)" fill="#ccb043"/>
      <path id="Path_81529" data-name="Path 81529" d="M610.935,71.146h-3.462a.333.333,0,1,1,0-.666h3.462a.333.333,0,1,1,0,.666Z" transform="translate(-596.947 -70.48)" fill="#ccb043"/>
      <path id="Path_81530" data-name="Path 81530" d="M618.595,71.146h-3.462a.333.333,0,1,1,0-.666h3.462a.333.333,0,1,1,0,.666Z" transform="translate(-599.508 -70.48)" fill="#ccb043"/>
    </g>
  </g>
</svg>
