<svg xmlns="http://www.w3.org/2000/svg" width="160.688" height="160.688" viewBox="0 0 160.688 160.688">
  <g id="Group_21852" data-name="Group 21852" transform="translate(-366.439 -697.949)">
    <circle id="Ellipse_25" data-name="Ellipse 25" cx="56.811" cy="56.811" r="56.811" transform="translate(366.439 778.293) rotate(-45)" fill="#f7f7f7"/>
    <path id="Path_81587" data-name="Path 81587" d="M131.692,123.2H35.45V60.642a7.691,7.691,0,0,1,7.692-7.692H124a7.691,7.691,0,0,1,7.692,7.692V123.2Z" transform="translate(361.618 690.221)" fill="#ccb043"/>
    <path id="Path_81588" data-name="Path 81588" d="M124,52.95H43.142a7.691,7.691,0,0,0-7.692,7.692v.689a7.691,7.691,0,0,1,7.692-7.692H124a7.691,7.691,0,0,1,7.692,7.692v-.689A7.691,7.691,0,0,0,124,52.95Z" transform="translate(361.618 690.221)" fill="#fff"/>
    <path id="Path_81589" data-name="Path 81589" d="M131.536,123.385H35.294a.341.341,0,0,1-.344-.344V60.486a8.045,8.045,0,0,1,8.036-8.036.344.344,0,1,1,0,.689,7.359,7.359,0,0,0-7.348,7.348V122.7h95.553V60.486a7.359,7.359,0,0,0-7.348-7.348H46.422a.344.344,0,1,1,0-.689h77.422a8.045,8.045,0,0,1,8.036,8.036v62.555a.341.341,0,0,1-.344.344Z" transform="translate(361.774 690.377)" fill="#1d1a1e"/>
    <path id="Path_81590" data-name="Path 81590" d="M41.6,121.278V62.573a3.848,3.848,0,0,1,3.843-3.843H126.3a3.848,3.848,0,0,1,3.843,3.843v58.705Z" transform="translate(359.703 688.421)" fill="#fff"/>
    <path id="Path_81591" data-name="Path 81591" d="M125.741,58.54H44.883a3.848,3.848,0,0,0-3.843,3.843v.689a3.848,3.848,0,0,1,3.843-3.843h80.858a3.848,3.848,0,0,1,3.843,3.843v-.689a3.848,3.848,0,0,0-3.843-3.843Z" transform="translate(359.877 688.48)" fill="#f2f7fa"/>
    <path id="Path_81592" data-name="Path 81592" d="M129.424,121.276H40.874a.341.341,0,0,1-.344-.344V62.227a4.189,4.189,0,0,1,4.187-4.187h80.858a4.194,4.194,0,0,1,4.187,4.187v58.705a.341.341,0,0,1-.344.344Zm-88.206-.689H129.08V62.227a3.5,3.5,0,0,0-3.5-3.5H44.724a3.5,3.5,0,0,0-3.5,3.5v58.361Z" transform="translate(360.036 688.636)" fill="#1d1a1e"/>
    <path id="Path_81593" data-name="Path 81593" d="M131.548,160.824H26.389a5.707,5.707,0,0,1-5.709-5.709v-.055H137.257v.055a5.707,5.707,0,0,1-5.709,5.709Z" transform="translate(366.217 658.426)" fill="#ccb043"/>
    <path id="Path_81594" data-name="Path 81594" d="M131.548,159.433H26.389a5.707,5.707,0,0,1-5.55-4.393H20.68v.055a5.707,5.707,0,0,0,5.709,5.709h105.16a5.707,5.707,0,0,0,5.709-5.709v-.055H137.1A5.715,5.715,0,0,1,131.548,159.433Z" transform="translate(366.217 658.432)" fill="#e2c450"/>
    <path id="Path_81595" data-name="Path 81595" d="M20.68,155.05v.055c0,.213.014.42.034.634H137.223c.021-.207.034-.42.034-.634v-.055Z" transform="translate(366.217 658.429)" fill="#fff"/>
    <path id="Path_81596" data-name="Path 81596" d="M131.393,161.012H26.233a6.057,6.057,0,0,1-6.053-6.053.392.392,0,0,1,.344-.4H137.1a.341.341,0,0,1,.344.344,6.075,6.075,0,0,1-6.053,6.115ZM20.876,155.242a5.385,5.385,0,0,0,5.357,5.082h105.16a5.371,5.371,0,0,0,5.357-5.082H20.882Z" transform="translate(366.373 658.582)" fill="#1d1a1e"/>
    <g id="Group_21820" data-name="Group 21820" transform="translate(433.661 813.135)">
      <path id="Path_81597" data-name="Path 81597" d="M109.1,157.419H91.438a2.351,2.351,0,0,1-2.348-2.348v-.021h22.36v.021a2.351,2.351,0,0,1-2.348,2.348Z" transform="translate(-88.746 -154.706)" fill="#f2f7fa"/>
      <path id="Path_81598" data-name="Path 81598" d="M108.946,157.607H91.283a2.692,2.692,0,0,1-2.693-2.693.359.359,0,0,1,.344-.365h22.36a.341.341,0,0,1,.344.344,2.7,2.7,0,0,1-2.693,2.713Zm-19.633-2.369a2,2,0,0,0,1.976,1.68h17.663a2,2,0,0,0,1.976-1.68Z" transform="translate(-88.59 -154.55)" fill="#1d1a1e"/>
    </g>
    <path id="Path_81599" data-name="Path 81599" d="M139.3,163.619H14.714a.344.344,0,0,1,0-.689H139.3a.344.344,0,0,1,0,.689Z" transform="translate(368.182 655.976)" fill="#1d1a1e"/>
    <circle id="Ellipse_26" data-name="Ellipse 26" cx="10.619" cy="10.619" r="10.619" transform="translate(475.357 748.03) rotate(-45)" fill="#ccb043" opacity="0.5"/>
    <circle id="Ellipse_27" data-name="Ellipse 27" cx="10.619" cy="10.619" r="10.619" transform="translate(476.735 746.647) rotate(-45)" fill="#f7f7f7"/>
    <path id="Path_81600" data-name="Path 81600" d="M168.149,43.269a10.605,10.605,0,0,1,10.6,10.274c0-.117.021-.227.021-.344a10.619,10.619,0,1,0-21.237,0c0,.117.014.227.021.344A10.614,10.614,0,0,1,168.149,43.269Z" transform="translate(323.605 693.45)" fill="#fff"/>
    <path id="Path_81601" data-name="Path 81601" d="M167.993,64.006a10.963,10.963,0,1,1,10.963-10.963A10.974,10.974,0,0,1,167.993,64.006Zm0-21.237a10.274,10.274,0,1,0,10.274,10.274,10.283,10.283,0,0,0-10.274-10.274Z" transform="translate(323.761 693.606)" fill="#1d1a1e"/>
    <circle id="Ellipse_28" data-name="Ellipse 28" cx="0.689" cy="0.689" r="0.689" transform="translate(404.278 750.002)" fill="#1d1a1e"/>
    <circle id="Ellipse_29" data-name="Ellipse 29" cx="0.689" cy="0.689" r="0.689" transform="translate(406.344 750.002)" fill="#1d1a1e"/>
    <circle id="Ellipse_30" data-name="Ellipse 30" cx="0.689" cy="0.689" r="0.689" transform="translate(408.41 750.002)" fill="#1d1a1e"/>
    <g id="Group_21821" data-name="Group 21821" transform="translate(444.004 743.977)">
      <path id="Path_81602" data-name="Path 81602" d="M105.79,55.46a.84.84,0,1,1-.84-.84A.843.843,0,0,1,105.79,55.46Z" transform="translate(-103.766 -54.276)" fill="#393939"/>
      <path id="Path_81603" data-name="Path 81603" d="M104.794,56.489a1.184,1.184,0,1,1,1.184-1.184A1.184,1.184,0,0,1,104.794,56.489Zm0-1.68a.5.5,0,1,0,.5.5A.494.494,0,0,0,104.794,54.809Z" transform="translate(-103.61 -54.12)" fill="#b99e38"/>
    </g>
    <path id="Path_81604" data-name="Path 81604" d="M144.14,28.729a.341.341,0,0,1-.344-.344,3.365,3.365,0,0,0-.255-1.274,3.261,3.261,0,0,0-3.016-2,.344.344,0,1,1,0-.689,3.365,3.365,0,0,0,1.274-.255,3.261,3.261,0,0,0,2-3.016.344.344,0,1,1,.689,0,3.365,3.365,0,0,0,.255,1.274,3.261,3.261,0,0,0,3.016,2,.344.344,0,1,1,0,.689,3.365,3.365,0,0,0-1.274.255,3.261,3.261,0,0,0-2,3.016A.341.341,0,0,1,144.14,28.729Zm-2-3.96a3.99,3.99,0,0,1,1.184.813,3.866,3.866,0,0,1,.813,1.184,4.123,4.123,0,0,1,.813-1.184,3.866,3.866,0,0,1,1.184-.813,3.99,3.99,0,0,1-1.184-.813,3.866,3.866,0,0,1-.813-1.184,4.122,4.122,0,0,1-.813,1.184A3.785,3.785,0,0,1,142.143,24.77Z" transform="translate(329.007 700.229)" fill="#ccb043"/>
    <path id="Path_81605" data-name="Path 81605" d="M166.916,31.425h0v-.344l.034.344Zm0,0a2.87,2.87,0,0,1-.751-.1l.172-.668a2.231,2.231,0,0,0,.565.076v.689Zm.758-.1-.179-.668a2.106,2.106,0,0,0,.53-.22l.344.592a2.915,2.915,0,0,1-.7.289Zm-2.2-.282a2.78,2.78,0,0,1-.6-.461l.489-.489a2.1,2.1,0,0,0,.461.351l-.344.6Zm3.5-.468-.489-.489a2.1,2.1,0,0,0,.351-.461l.6.344a2.781,2.781,0,0,1-.461.6Zm-4.566-.585a2.936,2.936,0,0,1-.3-.7l.661-.179a2.106,2.106,0,0,0,.22.53l-.592.344Zm5.309-.716-.668-.179a2.284,2.284,0,0,0,.076-.572l.689-.028v.028A3.031,3.031,0,0,1,169.719,29.277Zm-5.709-.737v-.014a2.965,2.965,0,0,1,.1-.737l.668.172a2.172,2.172,0,0,0-.069.558l-.689.014Zm5.034-.613a1.9,1.9,0,0,0-.227-.53l.592-.351a2.937,2.937,0,0,1,.3.7l-.661.186Zm-4.056-.5-.6-.344a2.966,2.966,0,0,1,.454-.606l.489.482a2.1,2.1,0,0,0-.351.461Zm3.478-.489A2.015,2.015,0,0,0,168,26.6l.337-.6a2.966,2.966,0,0,1,.606.454l-.482.489Zm-2.672-.331-.351-.592a2.938,2.938,0,0,1,.7-.3l.186.661a1.9,1.9,0,0,0-.53.227Zm1.673-.234a2.119,2.119,0,0,0-.551-.069l-.021-.689h.021a2.812,2.812,0,0,1,.723.09Z" transform="translate(321.587 698.731)" fill="#ccb043"/>
    <circle id="Ellipse_31" data-name="Ellipse 31" cx="9.035" cy="9.035" r="9.035" transform="translate(433.924 792.606) rotate(-53.35)" fill="#ccb043" opacity="0.5"/>
    <circle id="Ellipse_32" data-name="Ellipse 32" cx="16.679" cy="16.679" r="16.679" transform="translate(415.718 788.236) rotate(-53.35)" fill="#ccb043"/>
    <path id="Path_81645" data-name="Path 81645" d="M101.248,107.619a9.033,9.033,0,0,1,9.021,8.69c0-.117.021-.227.021-.344a9.035,9.035,0,1,0-18.069,0c0,.117.014.227.021.344a9.024,9.024,0,0,1,9.021-8.69Z" transform="translate(343.941 673.413)" fill="#f2f7fa"/>
    <path id="Path_81646" data-name="Path 81646" d="M101.086,125.2a9.379,9.379,0,1,1,9.379-9.379A9.4,9.4,0,0,1,101.086,125.2Zm0-18.076a8.69,8.69,0,1,0,8.69,8.69A8.705,8.705,0,0,0,101.086,107.122Z" transform="translate(344.103 673.565)" fill="#1d1a1e"/>
    <path id="Path_81647" data-name="Path 81647" d="M51.534,55.559h-1.26a.344.344,0,0,1,0-.689h1.26a.344.344,0,0,1,0,.689Z" transform="translate(357.109 689.623)" fill="#fff"/>
    <path id="Path_81648" data-name="Path 81648" d="M61.8,55.559H53.764a.344.344,0,1,1,0-.689H61.8a.344.344,0,0,1,0,.689Z" transform="translate(356.022 689.623)" fill="#fff"/>
    <circle id="Ellipse_33" data-name="Ellipse 33" cx="15.721" cy="15.721" r="15.721" transform="translate(375.655 740.312) rotate(-76.72)" fill="#ccb043" opacity="0.5"/>
    <g id="Group_21836" data-name="Group 21836" transform="translate(374.273 708.331)">
      <circle id="Ellipse_34" data-name="Ellipse 34" cx="15.721" cy="15.721" r="15.721" transform="translate(0 30.602) rotate(-76.72)" fill="#fff"/>
      <path id="Path_81649" data-name="Path 81649" d="M22.556,38.628a16.073,16.073,0,1,0,0-.007Zm0-31.449A15.377,15.377,0,1,0,37.933,22.556,15.392,15.392,0,0,0,22.556,7.179Z" transform="translate(-3.638 -3.643)" fill="#1d1a1e"/>
    </g>
    <g id="Group_21837" data-name="Group 21837" transform="translate(372.656 706.707)">
      <path id="Path_81650" data-name="Path 81650" d="M20.715,57.938a.335.335,0,0,1-.1-.014c-.558-.165-1.116-.351-1.66-.558a.347.347,0,0,1,.248-.647c.523.2,1.06.386,1.6.544a.344.344,0,0,1-.1.675Z" transform="translate(-5.834 -17.653)" fill="#1d1a1e"/>
      <path id="Path_81651" data-name="Path 81651" d="M10.061,38.156a.334.334,0,0,1-.179-.048,20.58,20.58,0,0,1-2.913-2.142.346.346,0,0,1,.461-.516,20.168,20.168,0,0,0,2.816,2.073.346.346,0,0,1,.117.475.349.349,0,0,1-.3.165ZM4.745,33.473a.329.329,0,0,1-.269-.131,20.734,20.734,0,0,1-2-3.009A.345.345,0,0,1,3.085,30,19.985,19.985,0,0,0,5.02,32.916a.341.341,0,0,1-.055.482.351.351,0,0,1-.213.076ZM1.356,27.255a.339.339,0,0,1-.324-.234A20.588,20.588,0,0,1,.2,23.5a.348.348,0,0,1,.289-.393.343.343,0,0,1,.393.289,19.244,19.244,0,0,0,.806,3.4.342.342,0,0,1-.22.434.312.312,0,0,1-.11.021ZM.344,20.245H.33A.337.337,0,0,1,0,19.887,20.181,20.181,0,0,1,.427,16.3a.349.349,0,0,1,.406-.269.349.349,0,0,1,.269.406,19.5,19.5,0,0,0-.413,3.471.338.338,0,0,1-.344.331ZM1.8,13.31a.3.3,0,0,1-.131-.028.343.343,0,0,1-.193-.448A20.587,20.587,0,0,1,3.119,9.613a.345.345,0,1,1,.585.365A19.486,19.486,0,0,0,2.114,13.09.351.351,0,0,1,1.8,13.3ZM38.57,11.8a.354.354,0,0,1-.31-.186,19.407,19.407,0,0,0-1.846-2.968.344.344,0,0,1,.551-.413A20.765,20.765,0,0,1,38.873,11.3a.342.342,0,0,1-.151.461.3.3,0,0,1-.152.034Zm-33-4.483a.344.344,0,0,1-.255-.578A21.322,21.322,0,0,1,7.967,4.276a.344.344,0,0,1,.42.544A19.49,19.49,0,0,0,5.819,7.2a.334.334,0,0,1-.255.11ZM34.328,6.128a.333.333,0,0,1-.234-.09,19.781,19.781,0,0,0-2.754-2.155.344.344,0,1,1,.372-.578,20.185,20.185,0,0,1,2.844,2.231.347.347,0,0,1,.014.489.36.36,0,0,1-.255.11ZM11.176,2.981a.344.344,0,0,1-.158-.647A20.839,20.839,0,0,1,14.358.943a.346.346,0,0,1,.207.661,19.728,19.728,0,0,0-3.23,1.343.32.32,0,0,1-.158.041Zm17.216-.709a.279.279,0,0,1-.131-.028,19.492,19.492,0,0,0-3.326-1.067A.346.346,0,0,1,25.086.5,20.691,20.691,0,0,1,28.53,1.611a.356.356,0,0,1,.186.454.351.351,0,0,1-.317.213ZM17.925.853a.346.346,0,0,1-.048-.689A21.15,21.15,0,0,1,21.492.02a.345.345,0,0,1,.331.358.341.341,0,0,1-.358.331,20.407,20.407,0,0,0-3.491.145h-.041Z" transform="translate(0 0.002)" fill="#1d1a1e"/>
      <path id="Path_81652" data-name="Path 81652" d="M58.2,23.355a.345.345,0,0,1-.337-.275,16.781,16.781,0,0,0-.413-1.639.344.344,0,1,1,.661-.193c.165.558.31,1.129.427,1.7a.344.344,0,0,1-.269.406c-.021,0-.048.007-.069.007Z" transform="translate(-17.885 -6.537)" fill="#1d1a1e"/>
    </g>
    <path id="Path_81653" data-name="Path 81653" d="M37.29,26.781V24.212l-2-.207a9.875,9.875,0,0,0-.565-2.128L36.353,20.7l-1.281-2.224-1.825.819a9.871,9.871,0,0,0-1.563-1.563l.819-1.825L30.28,14.627,29.1,16.252a9.551,9.551,0,0,0-2.135-.565l-.207-2H24.192l-.207,2a9.875,9.875,0,0,0-2.128.565L20.68,14.627l-2.224,1.281.819,1.825A9.871,9.871,0,0,0,17.712,19.3l-1.825-.819L14.607,20.7l1.625,1.178a9.592,9.592,0,0,0-.565,2.128l-2,.207v2.569l2,.207a9.875,9.875,0,0,0,.565,2.128l-1.625,1.178,1.281,2.224,1.825-.819a9.871,9.871,0,0,0,1.563,1.563l-.819,1.825,2.224,1.281,1.178-1.625a9.592,9.592,0,0,0,2.128.565l.207,2h2.569l.207-2a10.043,10.043,0,0,0,2.135-.565l1.178,1.625L32.5,35.086l-.819-1.825A9.87,9.87,0,0,0,33.248,31.7l1.825.819,1.281-2.224-1.625-1.178a9.592,9.592,0,0,0,.565-2.128ZM25.48,31.374a5.881,5.881,0,1,1,5.881-5.881,5.878,5.878,0,0,1-5.881,5.881Z" transform="translate(368.4 702.446)" fill="#b3cdff" opacity="0.5"/>
    <path id="Path_81654" data-name="Path 81654" d="M36.29,25.781V23.212l-2-.207a9.875,9.875,0,0,0-.565-2.128L35.353,19.7l-1.281-2.224-1.825.819a9.871,9.871,0,0,0-1.563-1.563l.819-1.825L29.28,13.627,28.1,15.252a9.551,9.551,0,0,0-2.135-.565l-.207-2H23.192l-.207,2a9.875,9.875,0,0,0-2.128.565L19.68,13.627l-2.224,1.281.819,1.825A9.871,9.871,0,0,0,16.712,18.3l-1.825-.819L13.607,19.7l1.625,1.178a9.592,9.592,0,0,0-.565,2.128l-2,.207v2.569l2,.207a9.875,9.875,0,0,0,.565,2.128l-1.625,1.178,1.281,2.224,1.825-.819a9.87,9.87,0,0,0,1.563,1.563l-.819,1.825,2.224,1.281,1.178-1.625a9.591,9.591,0,0,0,2.128.565l.207,2h2.569l.207-2a10.043,10.043,0,0,0,2.135-.565l1.178,1.625L31.5,34.086l-.819-1.825A9.871,9.871,0,0,0,32.248,30.7l1.825.819,1.281-2.224-1.625-1.178a9.592,9.592,0,0,0,.565-2.128l2-.207ZM24.48,30.374a5.881,5.881,0,1,1,5.881-5.881,5.878,5.878,0,0,1-5.881,5.881Z" transform="translate(368.711 702.757)" fill="#ccb043"/>
    <path id="Path_81655" data-name="Path 81655" d="M25.6,36.5H23.033a.344.344,0,0,1-.344-.31L22.51,34.45A10.75,10.75,0,0,1,20.816,34L19.8,35.414a.337.337,0,0,1-.448.1L17.125,34.23a.351.351,0,0,1-.145-.441l.709-1.584a10.536,10.536,0,0,1-1.24-1.24l-1.584.709a.347.347,0,0,1-.441-.145l-1.281-2.224a.337.337,0,0,1,.1-.448l1.412-1.019a10.556,10.556,0,0,1-.448-1.694l-1.735-.179a.35.35,0,0,1-.31-.344V23.053a.344.344,0,0,1,.31-.344l1.735-.179a10.751,10.751,0,0,1,.448-1.694l-1.412-1.019a.337.337,0,0,1-.1-.448l1.281-2.224A.351.351,0,0,1,14.866,17l1.584.709a10.536,10.536,0,0,1,1.24-1.24l-.709-1.584a.347.347,0,0,1,.145-.441l2.224-1.281a.337.337,0,0,1,.448.1l1.019,1.412a10.556,10.556,0,0,1,1.694-.448l.179-1.735a.35.35,0,0,1,.344-.31H25.6a.344.344,0,0,1,.344.31l.179,1.735a10.751,10.751,0,0,1,1.694.448l1.019-1.412a.337.337,0,0,1,.448-.1l2.224,1.281a.351.351,0,0,1,.145.441l-.709,1.584a10.536,10.536,0,0,1,1.24,1.24L33.769,17a.347.347,0,0,1,.441.145l1.281,2.224a.337.337,0,0,1-.1.448l-1.412,1.019a10.556,10.556,0,0,1,.448,1.694l1.735.179a.35.35,0,0,1,.31.344v2.569a.344.344,0,0,1-.31.344l-1.735.179a10.75,10.75,0,0,1-.448,1.694l1.412,1.019a.337.337,0,0,1,.1.448L34.21,31.53a.351.351,0,0,1-.441.145l-1.584-.709a10.536,10.536,0,0,1-1.24,1.24l.709,1.584a.347.347,0,0,1-.145.441l-2.224,1.281a.337.337,0,0,1-.448-.1L27.819,34a10.556,10.556,0,0,1-1.694.448l-.179,1.735a.35.35,0,0,1-.344.31Zm-2.252-.689h1.942l.172-1.687a.337.337,0,0,1,.289-.3,9.742,9.742,0,0,0,2.059-.544.356.356,0,0,1,.406.117l.992,1.37,1.687-.971-.689-1.543a.348.348,0,0,1,.1-.406,9.76,9.76,0,0,0,1.508-1.508.332.332,0,0,1,.406-.1l1.543.689.971-1.687-1.37-.992a.344.344,0,0,1-.117-.406,9.345,9.345,0,0,0,.544-2.059.337.337,0,0,1,.3-.289l1.687-.172V23.377L34.093,23.2a.337.337,0,0,1-.3-.289,9.741,9.741,0,0,0-.544-2.059.356.356,0,0,1,.117-.406l1.37-.992-.971-1.687-1.543.689a.348.348,0,0,1-.406-.1,9.76,9.76,0,0,0-1.508-1.508.332.332,0,0,1-.1-.406l.689-1.543-1.687-.971-.992,1.37a.353.353,0,0,1-.406.117,9.345,9.345,0,0,0-2.059-.544.337.337,0,0,1-.289-.3l-.172-1.687H23.35l-.172,1.687a.337.337,0,0,1-.289.3,9.742,9.742,0,0,0-2.059.544.356.356,0,0,1-.406-.117l-.992-1.37-1.687.971.689,1.543a.348.348,0,0,1-.1.406,9.76,9.76,0,0,0-1.508,1.508.332.332,0,0,1-.406.1l-1.543-.689-.971,1.687,1.37.992a.344.344,0,0,1,.117.406,9.345,9.345,0,0,0-.544,2.059.337.337,0,0,1-.3.289l-1.687.172v1.942l1.687.172a.337.337,0,0,1,.3.289,9.741,9.741,0,0,0,.544,2.059.356.356,0,0,1-.117.406l-1.37.992.971,1.687,1.543-.689a.348.348,0,0,1,.406.1,9.466,9.466,0,0,0,1.508,1.508.332.332,0,0,1,.1.406l-.689,1.543,1.687.971.992-1.37a.341.341,0,0,1,.406-.117,9.345,9.345,0,0,0,2.059.544.337.337,0,0,1,.289.3Zm.971-5.247a6.225,6.225,0,1,1,6.225-6.225A6.232,6.232,0,0,1,24.321,30.559Zm0-11.755a5.537,5.537,0,1,0,5.537,5.537A5.546,5.546,0,0,0,24.321,18.8Z" transform="translate(368.87 702.916)" fill="#1d1a1e"/>
    <path id="Path_81656" data-name="Path 81656" d="M59.073,22.12l-1.047,3.009-2.087-2.4Z" transform="translate(355.238 699.821)" fill="#ccb043"/>
    <path id="Path_81657" data-name="Path 81657" d="M59.866,26.56l-1.04,3.009-2.087-2.41Z" transform="translate(354.989 698.438)" fill="#ccb043"/>
    <rect id="Rectangle_266" data-name="Rectangle 266" width="28.881" height="18.889" rx="3" transform="translate(378.84 771.866)" fill="#ccb043" opacity="0.5"/>
    <rect id="Rectangle_267" data-name="Rectangle 267" width="28.881" height="18.889" rx="3" transform="translate(377.463 770.489)" fill="#fff"/>
    <path id="Path_81658" data-name="Path 81658" d="M33.795,117.116H9.046A2.063,2.063,0,0,1,6.98,115.05v1.377a2.063,2.063,0,0,0,2.066,2.066H33.795a2.063,2.063,0,0,0,2.066-2.066V115.05A2.063,2.063,0,0,1,33.795,117.116Z" transform="translate(370.483 670.884)" fill="#eff8ff"/>
    <path id="Path_81659" data-name="Path 81659" d="M33.639,111.7H8.89a2.413,2.413,0,0,1-2.41-2.41V94.53a2.413,2.413,0,0,1,2.41-2.41H33.639a2.413,2.413,0,0,1,2.41,2.41v14.757A2.413,2.413,0,0,1,33.639,111.7ZM8.89,92.809A1.722,1.722,0,0,0,7.169,94.53v14.757a1.722,1.722,0,0,0,1.722,1.722H33.639a1.722,1.722,0,0,0,1.722-1.722V94.53a1.722,1.722,0,0,0-1.722-1.722Z" transform="translate(370.638 678.024)" fill="#1d1a1e"/>
    <g id="Group_21838" data-name="Group 21838" transform="translate(470.138 735.465)">
      <path id="Path_81660" data-name="Path 81660" d="M145.144,43.392a.323.323,0,0,1-.241-.1.341.341,0,0,1,0-.489l.937-.937a.346.346,0,0,1,.489.489l-.93.937a.346.346,0,0,1-.241.1Z" transform="translate(-142.569 -41.76)" fill="#1d1a1e"/>
      <path id="Path_81661" data-name="Path 81661" d="M142.841,43.412a.323.323,0,0,1-.241-.1l-.937-.937a.346.346,0,0,1,.489-.489l.937.937a.341.341,0,0,1,0,.489.346.346,0,0,1-.241.1Z" transform="translate(-141.56 -41.766)" fill="#1d1a1e"/>
      <path id="Path_81662" data-name="Path 81662" d="M141.924,46.652a.323.323,0,0,1-.241-.1.341.341,0,0,1,0-.489l.937-.937a.346.346,0,0,1,.489.489l-.937.937a.346.346,0,0,1-.241.1Z" transform="translate(-141.566 -42.775)" fill="#1d1a1e"/>
      <path id="Path_81663" data-name="Path 81663" d="M146.091,46.632a.323.323,0,0,1-.241-.1l-.937-.937a.346.346,0,1,1,.489-.489l.937.93a.341.341,0,0,1,0,.489.346.346,0,0,1-.241.1Z" transform="translate(-142.572 -42.769)" fill="#1d1a1e"/>
    </g>
    <path id="Path_81664" data-name="Path 81664" d="M35.361,102.669H6.824a.344.344,0,1,1,0-.689H35.361a.344.344,0,1,1,0,.689Z" transform="translate(370.638 674.954)" fill="#ccb043"/>
    <g id="Group_21839" data-name="Group 21839" transform="translate(380.617 782.195)">
      <path id="Path_81665" data-name="Path 81665" d="M15.774,110.309H11.9a.344.344,0,1,1,0-.689h3.87a.344.344,0,1,1,0,.689Z" transform="translate(-11.56 -109.62)" fill="#ccb043"/>
      <path id="Path_81666" data-name="Path 81666" d="M24.064,110.309h-3.87a.344.344,0,1,1,0-.689h3.87a.344.344,0,1,1,0,.689Z" transform="translate(-14.141 -109.62)" fill="#ccb043"/>
      <path id="Path_81667" data-name="Path 81667" d="M32.354,110.309h-3.87a.344.344,0,1,1,0-.689h3.87a.344.344,0,1,1,0,.689Z" transform="translate(-16.723 -109.62)" fill="#ccb043"/>
      <path id="Path_81668" data-name="Path 81668" d="M40.654,110.309h-3.87a.344.344,0,1,1,0-.689h3.87a.344.344,0,1,1,0,.689Z" transform="translate(-19.307 -109.62)" fill="#ccb043"/>
    </g>
    <path id="Path_81669" data-name="Path 81669" d="M163.158,54.054a.705.705,0,0,1-.489-.2.686.686,0,0,1,0-.971,9.925,9.925,0,0,1,14.041-.007.687.687,0,0,1-.971.971,8.537,8.537,0,0,0-12.085,0,.676.676,0,0,1-.489.2Z" transform="translate(322.068 691.149)" fill="#ccb043"/>
    <path id="Path_81670" data-name="Path 81670" d="M165.528,56.729a.705.705,0,0,1-.489-.2.686.686,0,0,1,0-.971,7.606,7.606,0,0,1,10.77-.007.687.687,0,0,1-.971.971,6.234,6.234,0,0,0-8.828,0,.676.676,0,0,1-.489.2Z" transform="translate(321.33 690.106)" fill="#ccb043"/>
    <path id="Path_81671" data-name="Path 81671" d="M167.9,59.407a.705.705,0,0,1-.489-.2.686.686,0,0,1,0-.971,5.3,5.3,0,0,1,7.506,0,.687.687,0,1,1-.971.971,3.924,3.924,0,0,0-5.557.007.676.676,0,0,1-.489.2Z" transform="translate(320.592 689.06)" fill="#ccb043"/>
    <circle id="Ellipse_35" data-name="Ellipse 35" cx="1.88" cy="1.88" r="1.88" transform="translate(489.881 748.735)" fill="#ccb043"/>
    <path id="Path_81672" data-name="Path 81672" d="M153.244,157.729h-1.15a.344.344,0,0,1,0-.689h1.15a.344.344,0,0,1,0,.689Z" transform="translate(325.405 657.81)" fill="#fff"/>
    <path id="Path_81673" data-name="Path 81673" d="M160.7,157.729h-5.316a.344.344,0,1,1,0-.689H160.7a.344.344,0,0,1,0,.689Z" transform="translate(324.38 657.81)" fill="#fff"/>
    <g id="Group_21840" data-name="Group 21840" transform="translate(441.731 785.603)">
      <path id="Path_81674" data-name="Path 81674" d="M100.872,119.055c.3.454,2.259,3.574,2.72,3.574.249,0,1.221-1.223,2.51-2.973.754-1.022,1.788-2.5,2.551-3.583.262-.372-.372-1.708-1.37-.661-.95,1-3.781,4.228-3.781,4.228s-1.329-1.253-1.715-1.6-1.212.544-.916,1Z" transform="translate(-100.464 -114.709)" fill="#fff"/>
      <path id="Path_81675" data-name="Path 81675" d="M103.436,122.84c-.262,0-.62,0-2.94-3.629l-.069-.1a.876.876,0,0,1,.028-.923,1.234,1.234,0,0,1,.971-.682.621.621,0,0,1,.434.165c.282.248,1.054.978,1.46,1.357.7-.8,2.761-3.14,3.553-3.973.675-.709,1.508-.606,1.88.1a.982.982,0,0,1,.021.992c-4.249,6.046-4.917,6.7-5.344,6.7Zm-2.031-4.662a.738.738,0,0,0-.344.337c-.062.11-.069.2-.048.22l.069.11a18.191,18.191,0,0,0,2.355,3.271,68.529,68.529,0,0,0,4.745-6.308.416.416,0,0,0-.076-.406c-.11-.152-.393-.22-.723.131-.937.978-3.739,4.187-3.767,4.221l-.234.269-.262-.248s-1.322-1.246-1.708-1.591Z" transform="translate(-100.306 -114.592)" fill="#bfa12d"/>
    </g>
  </g>
</svg>
