<svg xmlns="http://www.w3.org/2000/svg" width="154.435" height="154.435" viewBox="0 0 154.435 154.435">
  <g id="Group_21847" data-name="Group 21847" transform="translate(-749.565 -782.076)">
    <circle id="Ellipse_17" data-name="Ellipse 17" cx="54.601" cy="54.601" r="54.601" transform="translate(749.565 859.293) rotate(-45)" fill="#f7f7f7"/>
    <g id="Group_21809" data-name="Group 21809" transform="translate(818.266 816.486)">
      <path id="Path_81531" data-name="Path 81531" d="M372.022,58.026a.331.331,0,0,1-.225-.086.34.34,0,0,1-.02-.47c.377-.41.768-.807,1.158-1.2a.332.332,0,1,1,.47.47c-.39.384-.768.774-1.138,1.178a.321.321,0,0,1-.245.106Z" transform="translate(-371.692 -44.986)" fill="#1d1a1e"/>
      <path id="Path_81532" data-name="Path 81532" d="M428.91,106.557a.328.328,0,0,1-.225-.569c.814-.774,1.6-1.588,2.33-2.429a.334.334,0,0,1,.47-.033.328.328,0,0,1,.026.47c-.748.847-1.542,1.681-2.369,2.469A.343.343,0,0,1,428.91,106.557Zm4.48-5.089a.325.325,0,0,1-.2-.066.336.336,0,0,1-.073-.463c.662-.9,1.3-1.84,1.873-2.793a.333.333,0,0,1,.569.344c-.589.966-1.231,1.926-1.906,2.846a.335.335,0,0,1-.265.132Zm3.528-5.791a.387.387,0,0,1-.146-.033.331.331,0,0,1-.152-.443c.5-1.006.953-2.038,1.357-3.077a.333.333,0,0,1,.622.238c-.41,1.059-.874,2.111-1.377,3.13a.327.327,0,0,1-.3.185Zm2.455-6.32a.322.322,0,0,1-.093-.013.332.332,0,0,1-.225-.41c.311-1.072.576-2.171.794-3.269a.331.331,0,0,1,.649.132c-.218,1.118-.49,2.237-.807,3.329a.326.326,0,0,1-.318.238Zm1.3-6.658h-.033a.333.333,0,0,1-.291-.364c.119-1.105.185-2.237.205-3.355a.331.331,0,0,1,.331-.324h0a.324.324,0,0,1,.324.338c-.02,1.138-.093,2.29-.212,3.415a.331.331,0,0,1-.331.3Zm.126-6.777a.332.332,0,0,1-.331-.311c-.073-1.112-.2-2.237-.377-3.342a.331.331,0,0,1,.655-.1c.179,1.125.3,2.263.384,3.4a.327.327,0,0,1-.3.351H440.8ZM439.75,69.23a.338.338,0,0,1-.324-.251c-.265-1.079-.589-2.164-.953-3.223a.333.333,0,1,1,.629-.218c.371,1.079.695,2.184.973,3.283a.334.334,0,0,1-.245.4c-.026,0-.053.007-.079.007Zm-2.2-6.406a.337.337,0,0,1-.3-.2c-.457-1.019-.96-2.032-1.509-3a.33.33,0,0,1,.576-.324c.556.993,1.072,2.025,1.535,3.058a.332.332,0,0,1-.165.437.337.337,0,0,1-.132.026Zm-3.3-5.917a.325.325,0,0,1-.271-.146c-.629-.927-1.3-1.833-2.005-2.7a.329.329,0,1,1,.51-.417c.715.88,1.4,1.807,2.045,2.747a.328.328,0,0,1-.086.457.324.324,0,0,1-.185.06Zm-4.282-5.255a.336.336,0,0,1-.238-.1c-.781-.8-1.6-1.575-2.449-2.31a.333.333,0,0,1,.437-.5c.86.741,1.694,1.529,2.488,2.349a.328.328,0,0,1-.232.563Zm-52.4-2.813a.339.339,0,0,1-.258-.119.321.321,0,0,1,.046-.463c.874-.728,1.794-1.423,2.727-2.072a.333.333,0,0,1,.377.549c-.92.635-1.82,1.317-2.68,2.032a.325.325,0,0,1-.212.079Zm47.274-1.621a.345.345,0,0,1-.192-.06c-.907-.655-1.853-1.277-2.813-1.846a.333.333,0,1,1,.344-.569c.973.582,1.939,1.211,2.859,1.88a.335.335,0,0,1,.073.463.327.327,0,0,1-.271.139Zm-41.7-2.237a.328.328,0,0,1-.159-.616c.986-.563,2.012-1.092,3.044-1.562a.332.332,0,0,1,.437.165.327.327,0,0,1-.165.437c-1.013.463-2.019.979-2.991,1.535a.366.366,0,0,1-.165.046ZM419,43.75a.387.387,0,0,1-.146-.033c-1.006-.483-2.045-.933-3.091-1.324a.329.329,0,1,1,.232-.615c1.065.4,2.124.854,3.144,1.35a.331.331,0,0,1,.152.443.327.327,0,0,1-.3.185Zm-29.709-1.595a.331.331,0,0,1-.113-.642c1.072-.377,2.171-.715,3.269-1a.331.331,0,1,1,.165.642c-1.085.278-2.164.609-3.216.986a.336.336,0,0,1-.113.02Zm23.369-.8a.264.264,0,0,1-.086-.013c-1.072-.3-2.177-.556-3.276-.761a.33.33,0,0,1-.265-.384.334.334,0,0,1,.384-.265c1.118.205,2.237.47,3.336.774a.334.334,0,0,1-.086.655Zm-16.81-.9a.327.327,0,0,1-.324-.278.34.34,0,0,1,.271-.384c1.118-.185,2.263-.324,3.4-.41a.341.341,0,0,1,.357.3.329.329,0,0,1-.3.357c-1.112.086-2.237.225-3.336.4h-.053ZM406,40.11h-.033c-1.112-.106-2.237-.165-3.355-.179a.332.332,0,0,1-.331-.331.309.309,0,0,1,.331-.331c1.138.013,2.29.073,3.415.179a.332.332,0,0,1-.033.662Z" transform="translate(-373.562 -39.268)" fill="#1d1a1e"/>
      <path id="Path_81533" data-name="Path 81533" d="M449.253,145.028a.315.315,0,0,1-.265-.139.336.336,0,0,1,.073-.463c.443-.324.874-.655,1.3-.993a.33.33,0,0,1,.41.516c-.437.344-.874.682-1.324,1.013a.354.354,0,0,1-.192.066Z" transform="translate(-397.811 -74.469)" fill="#1d1a1e"/>
    </g>
    <path id="Path_81534" data-name="Path 81534" d="M393.2,163.592H301.9a.331.331,0,0,1,0-.662h91.3a.331.331,0,1,1,0,.662Z" transform="translate(470.288 735.399)" fill="#ccb043"/>
    <rect id="Rectangle_260" data-name="Rectangle 260" width="72.139" height="59.544" rx="10.51" transform="translate(787.192 839.01)" fill="#f5f5f5"/>
    <path id="Path_81535" data-name="Path 81535" d="M389.923,157.616H331.7a6.955,6.955,0,0,1-6.956-6.956v1.39a6.955,6.955,0,0,0,6.956,6.956h58.227a6.955,6.955,0,0,0,6.956-6.956v-1.39A6.955,6.955,0,0,1,389.923,157.616Z" transform="translate(462.452 739.549)" fill="#ccb043"/>
    <path id="Path_81536" data-name="Path 81536" d="M330.71,106.557c17.135-8.346,20.3-25.2,20.808-33.257H331.7a6.955,6.955,0,0,0-6.956,6.956v22.668A36.61,36.61,0,0,0,330.71,106.557Z" transform="translate(462.452 765.71)" fill="#ccb043"/>
    <path id="Path_81537" data-name="Path 81537" d="M389.923,73.3H331.7a6.955,6.955,0,0,0-6.956,6.956v1.39A6.955,6.955,0,0,1,331.7,74.69h58.227a6.955,6.955,0,0,1,6.956,6.956v-1.39A6.955,6.955,0,0,0,389.923,73.3Z" transform="translate(462.452 765.71)" fill="#fff"/>
    <path id="Path_81538" data-name="Path 81538" d="M424.914,111.327H411.9a4.242,4.242,0,0,0-4.242,4.242v3.5a4.242,4.242,0,0,0,4.242,4.242h13.011V111.32Z" transform="translate(434.411 752.852)" fill="#ccb043"/>
    <path id="Path_81539" data-name="Path 81539" d="M389.754,133.006H331.527a7.3,7.3,0,0,1-7.287-7.287V80.087a7.3,7.3,0,0,1,7.287-7.287h25.765a.331.331,0,0,1,0,.662H331.527a6.632,6.632,0,0,0-6.625,6.625V125.72a6.632,6.632,0,0,0,6.625,6.625h58.227a6.632,6.632,0,0,0,6.625-6.625V80.087a6.632,6.632,0,0,0-6.625-6.625H363.135a.331.331,0,0,1,0-.662h26.619a7.3,7.3,0,0,1,7.287,7.287V125.72A7.3,7.3,0,0,1,389.754,133.006Z" transform="translate(462.621 765.879)" fill="#1d1a1e"/>
    <path id="Path_81540" data-name="Path 81540" d="M391.516,131.3H390.04a.331.331,0,0,1,0-.662h1.476a3.755,3.755,0,0,0,.477-.033.331.331,0,0,1,.1.655,4.057,4.057,0,0,1-.576.046Zm-4.811,0H384.7a.331.331,0,0,1,0-.662H386.7a.331.331,0,0,1,0,.662Zm-5.341,0h-2a.331.331,0,0,1,0-.662h2a.331.331,0,0,1,0,.662Zm-5.341,0h-2a.331.331,0,0,1,0-.662h2a.331.331,0,0,1,0,.662Zm-5.341,0h-2a.331.331,0,0,1,0-.662h2a.331.331,0,0,1,0,.662Zm-5.341,0h-2a.331.331,0,0,1,0-.662h2a.331.331,0,0,1,0,.662Zm-5.341,0h-2a.331.331,0,0,1,0-.662h2a.331.331,0,0,1,0,.662Zm-5.341,0h-2a.331.331,0,0,1,0-.662h2a.331.331,0,0,1,0,.662Zm-5.341,0h-2a.331.331,0,0,1,0-.662h2a.331.331,0,0,1,0,.662Zm-5.341,0h-2a.331.331,0,0,1,0-.662h2a.331.331,0,0,1,0,.662Zm-5.341,0h-2a.331.331,0,0,1,0-.662h2a.331.331,0,0,1,0,.662Zm-5.341,0h-.04a3.761,3.761,0,0,1-2.072-.615.33.33,0,0,1,.357-.556,3.134,3.134,0,0,0,1.714.51.345.345,0,0,1,.351.331.312.312,0,0,1-.311.331Zm61.3-1.933a.361.361,0,0,1-.146-.033.331.331,0,0,1-.152-.443,3.091,3.091,0,0,0,.324-1.4v-.4a.331.331,0,0,1,.662,0v.4a3.744,3.744,0,0,1-.4,1.688.327.327,0,0,1-.3.185Zm-64.819-1.416a.329.329,0,0,1-.331-.318v-2.012a.331.331,0,1,1,.662,0v1.992a.328.328,0,0,1-.318.344h-.013Zm65.183-3.865a.328.328,0,0,1-.331-.331v-2a.331.331,0,1,1,.662,0v2A.328.328,0,0,1,394.964,124.086Zm-65.183-1.476a.328.328,0,0,1-.331-.331v-2a.331.331,0,1,1,.662,0v2A.328.328,0,0,1,329.781,122.611Zm65.183-3.865a.328.328,0,0,1-.331-.331v-2a.331.331,0,1,1,.662,0v2A.328.328,0,0,1,394.964,118.746Zm-65.183-1.476a.328.328,0,0,1-.331-.331v-2a.331.331,0,1,1,.662,0v2A.328.328,0,0,1,329.781,117.27Zm65.183-3.865a.328.328,0,0,1-.331-.331v-2a.331.331,0,1,1,.662,0v2A.328.328,0,0,1,394.964,113.4Zm-65.183-1.476a.328.328,0,0,1-.331-.331v-2a.331.331,0,1,1,.662,0v2A.328.328,0,0,1,329.781,111.929Zm65.183-3.865a.328.328,0,0,1-.331-.331v-2a.331.331,0,1,1,.662,0v2A.328.328,0,0,1,394.964,108.064Zm-65.183-1.476a.328.328,0,0,1-.331-.331v-2a.331.331,0,1,1,.662,0v2A.328.328,0,0,1,329.781,106.588Zm65.183-3.865a.328.328,0,0,1-.331-.331v-2a.331.331,0,1,1,.662,0v2A.328.328,0,0,1,394.964,102.723Zm-65.183-1.476a.328.328,0,0,1-.331-.331v-2a.331.331,0,1,1,.662,0v2A.328.328,0,0,1,329.781,101.247Zm65.183-3.865a.328.328,0,0,1-.331-.331v-2a.331.331,0,1,1,.662,0v2A.328.328,0,0,1,394.964,97.382Zm-65.183-1.476a.328.328,0,0,1-.331-.331v-2a.331.331,0,1,1,.662,0v2A.328.328,0,0,1,329.781,95.906Zm65.183-3.865a.328.328,0,0,1-.331-.331v-2a.331.331,0,1,1,.662,0v2A.328.328,0,0,1,394.964,92.041Zm-65.183-1.476a.328.328,0,0,1-.331-.331v-2a.331.331,0,1,1,.662,0v2A.328.328,0,0,1,329.781,90.565ZM394.964,86.7a.328.328,0,0,1-.331-.331v-2a.331.331,0,1,1,.662,0v2A.328.328,0,0,1,394.964,86.7Zm-65.183-1.476a.328.328,0,0,1-.331-.331v-2a.331.331,0,0,1,.662,0v2A.328.328,0,0,1,329.781,85.224Zm65.091-3.858a.332.332,0,0,1-.324-.251,3.141,3.141,0,0,0-.893-1.549.332.332,0,0,1,.457-.483,3.805,3.805,0,0,1,1.079,1.873.329.329,0,0,1-.245.4c-.026,0-.053.007-.079.007Zm-64.363-1.317a.344.344,0,0,1-.205-.066.328.328,0,0,1-.06-.463,3.783,3.783,0,0,1,1.747-1.264.335.335,0,0,1,.424.205.33.33,0,0,1-.205.424,3.181,3.181,0,0,0-1.449,1.046.329.329,0,0,1-.265.126ZM390.8,78.692H388.8a.331.331,0,1,1,0-.662H390.8a.331.331,0,0,1,0,.662Zm-5.341,0h-2a.331.331,0,0,1,0-.662h2a.331.331,0,0,1,0,.662Zm-5.341,0h-2a.331.331,0,0,1,0-.662h2a.331.331,0,0,1,0,.662Zm-5.341,0h-2a.331.331,0,0,1,0-.662h2a.331.331,0,0,1,0,.662Zm-5.341,0h-2a.331.331,0,0,1,0-.662h2a.331.331,0,0,1,0,.662Zm-5.341,0h-2a.331.331,0,0,1,0-.662h2a.331.331,0,0,1,0,.662Zm-5.341,0h-2a.331.331,0,0,1,0-.662h2a.331.331,0,0,1,0,.662Zm-5.341,0h-2a.331.331,0,1,1,0-.662h2a.331.331,0,0,1,0,.662Zm-5.341,0h-2a.331.331,0,1,1,0-.662h2a.331.331,0,1,1,0,.662Zm-5.341,0h-2a.331.331,0,1,1,0-.662h2a.331.331,0,1,1,0,.662Zm-5.341,0h-2a.331.331,0,1,1,0-.662h2a.331.331,0,1,1,0,.662Z" transform="translate(460.859 764.11)" fill="#1d1a1e"/>
    <g id="Group_21810" data-name="Group 21810" transform="translate(841.74 862.465)">
      <path id="Path_81541" data-name="Path 81541" d="M427.2,121.226H411.9a4.242,4.242,0,0,1-4.242-4.242v-3.5a4.242,4.242,0,0,1,4.242-4.242h15.3v11.992Z" transform="translate(-407.329 -108.909)" fill="#ccb043"/>
      <path id="Path_81542" data-name="Path 81542" d="M427.035,121.387h-15.3a4.579,4.579,0,0,1-4.573-4.573v-3.5a4.579,4.579,0,0,1,4.573-4.573h15.3a.328.328,0,0,1,.331.331v11.992a.328.328,0,0,1-.331.331Zm-15.3-11.992a3.915,3.915,0,0,0-3.911,3.911v3.5a3.915,3.915,0,0,0,3.911,3.911H426.7v-11.33H411.733Z" transform="translate(-407.16 -108.74)" fill="#1d1a1e"/>
    </g>
    <path id="Path_81543" data-name="Path 81543" d="M341.824,59.99c-15.533.589-20.841-8.65-20.841-8.65s-5.308,9.239-20.841,8.65c0,0-2.164,26.539,20.841,37.751C343.988,86.536,341.824,59.99,341.824,59.99Z" transform="translate(470.789 773.136)" fill="#fff"/>
    <g id="Group_21811" data-name="Group 21811" transform="translate(770.555 824.145)">
      <path id="Path_81544" data-name="Path 81544" d="M341.824,59.99c-15.533.589-20.841-8.65-20.841-8.65s-5.308,9.239-20.841,8.65c0,0-2.164,26.539,20.841,37.751C343.988,86.536,341.824,59.99,341.824,59.99Z" transform="translate(-299.766 -51.009)" fill="#f7f7f7"/>
      <path id="Path_81545" data-name="Path 81545" d="M320.819,97.9a.387.387,0,0,1-.146-.033c-22.939-11.178-21.046-37.8-21.026-38.075a.334.334,0,0,1,.344-.3c15.149.569,20.49-8.4,20.543-8.485a.32.32,0,0,1,.285-.165h0a.334.334,0,0,1,.285.165c.046.086,5.076,8.511,19.14,8.511h0c.457,0,.927-.007,1.4-.026a.333.333,0,0,1,.344.3c.02.265,1.913,26.9-21.026,38.075a.361.361,0,0,1-.146.033Zm-20.53-37.737c-.139,3.011-.51,26.678,20.53,37.042,21.039-10.358,20.669-34.031,20.53-37.042-13.389.39-19.233-6.572-20.53-8.4C319.521,53.593,313.651,60.556,300.289,60.165Z" transform="translate(-299.601 -50.84)" fill="#1d1a1e"/>
    </g>
    <path id="Path_81546" data-name="Path 81546" d="M322.78,96.541c-14.765-8.121-17.088-23.7-17.38-30.384,8.855-.477,14.355-3.984,17.38-6.8,3.025,2.813,8.531,6.327,17.406,6.8-.245,6.691-2.5,22.2-17.4,30.384Z" transform="translate(468.992 770.424)" fill="#efefef"/>
    <path id="Path_81547" data-name="Path 81547" d="M322.78,60.052c3.025,2.806,8.518,6.314,17.373,6.79.013-.238.026-.47.033-.695-8.868-.47-14.375-3.984-17.406-6.8-3.025,2.806-8.524,6.32-17.38,6.8q.01.328.04.695c8.835-.483,14.322-3.984,17.34-6.79Z" transform="translate(468.992 770.427)" fill="#fff"/>
    <path id="Path_81548" data-name="Path 81548" d="M322.61,96.7a.333.333,0,0,1-.159-.04C307.461,88.419,305.185,72.475,304.9,66a.331.331,0,0,1,.311-.344c8.73-.47,14.156-3.9,17.174-6.7a.328.328,0,0,1,.45,0c3.018,2.806,8.452,6.241,17.194,6.7a.331.331,0,0,1,.311.344c-.238,6.453-2.429,22.35-17.571,30.662a.352.352,0,0,1-.159.04ZM305.575,66.3c.338,6.532,2.72,21.721,17.035,29.7,14.461-8.035,16.764-23.184,17.055-29.7-8.538-.529-13.958-3.858-17.062-6.658-3.1,2.8-8.511,6.122-17.035,6.658Z" transform="translate(469.162 770.591)" fill="#1d1a1e"/>
    <circle id="Ellipse_18" data-name="Ellipse 18" cx="9.411" cy="9.411" r="9.411" transform="translate(818.583 812.947)" fill="#ccb043" opacity="0.5"/>
    <circle id="Ellipse_19" data-name="Ellipse 19" cx="9.411" cy="9.411" r="9.411" transform="translate(817.974 811.723)" fill="#ccb043"/>
    <path id="Path_81549" data-name="Path 81549" d="M380.665,32.765a9.409,9.409,0,0,1,9.4,9.067c0-.119.02-.232.02-.351a9.411,9.411,0,0,0-18.822,0c0,.119.013.232.02.351a9.409,9.409,0,0,1,9.4-9.067Z" transform="translate(446.72 779.653)" fill="#fff"/>
    <path id="Path_81550" data-name="Path 81550" d="M380.492,51.064a9.742,9.742,0,1,1,9.742-9.742A9.75,9.75,0,0,1,380.492,51.064Zm0-18.822a9.08,9.08,0,1,0,9.08,9.08A9.091,9.091,0,0,0,380.492,32.242Z" transform="translate(446.893 779.818)" fill="#1d1a1e"/>
    <path id="Path_81551" data-name="Path 81551" d="M381.5,50.1a7.776,7.776,0,1,1,7.776-7.776A7.784,7.784,0,0,1,381.5,50.1Zm0-15.229a7.446,7.446,0,1,0,7.446,7.446A7.452,7.452,0,0,0,381.5,34.874Z" transform="translate(445.888 778.814)" fill="#fff"/>
    <path id="Path_81552" data-name="Path 81552" d="M419.2,117.815a2.985,2.985,0,1,1-2.985-2.985A2.986,2.986,0,0,1,419.2,117.815Z" transform="translate(432.527 751.665)" fill="#edcd4f"/>
    <g id="Group_21812" data-name="Group 21812" transform="translate(844.731 865.47)">
      <circle id="Ellipse_20" data-name="Ellipse 20" cx="2.985" cy="2.985" r="2.985" transform="translate(0.331 0.331)" fill="#f2f7fa"/>
      <path id="Path_81553" data-name="Path 81553" d="M415,119.911a3.316,3.316,0,1,1,3.316-3.316A3.322,3.322,0,0,1,415,119.911Zm0-5.97a2.654,2.654,0,1,0,2.654,2.654A2.658,2.658,0,0,0,415,113.942Z" transform="translate(-411.68 -113.28)" fill="#1d1a1e"/>
    </g>
    <path id="Path_81554" data-name="Path 81554" d="M331.67,63.8a28.973,28.973,0,0,0,14.54,5.149C345.754,75.382,343.3,88,331.67,95.588Z" transform="translate(460.108 768.922)" fill="#f7f7f7"/>
    <rect id="Rectangle_261" data-name="Rectangle 261" width="22.429" height="9.484" transform="translate(799.026 876.866)" fill="#edcd4f"/>
    <rect id="Rectangle_262" data-name="Rectangle 262" width="22.429" height="9.484" transform="translate(798.331 876.171)" fill="#ccb043"/>
    <path id="Path_81555" data-name="Path 81555" d="M383.331,97.094a.31.31,0,0,1-.232-.1.328.328,0,0,1,0-.47l4.3-4.3a.332.332,0,0,1,.47.47l-4.3,4.3a.333.333,0,0,1-.232.1Z" transform="translate(442.75 759.342)" fill="#ccb043"/>
    <path id="Path_81556" data-name="Path 81556" d="M389.821,95.933a.31.31,0,0,1-.232-.1.328.328,0,0,1,0-.47l2.085-2.085a.332.332,0,0,1,.47.47l-2.085,2.085a.332.332,0,0,1-.232.1Z" transform="translate(440.555 758.987)" fill="#ccb043"/>
    <path id="Path_81557" data-name="Path 81557" d="M387.192,44.879a2.613,2.613,0,0,1-.841,2.019,3.652,3.652,0,0,1-2.2.907l-.066,1.648h-1.33l.066-1.668a3.766,3.766,0,0,1-1.767-.682,2.621,2.621,0,0,1-.907-1.191v-.946H381.8a1.627,1.627,0,0,0,.4.662,1.577,1.577,0,0,0,.7.39l.1-2.4-.113-.026a4,4,0,0,1-2-.933,2.383,2.383,0,0,1-.695-1.807,2.61,2.61,0,0,1,.827-2.019,3.543,3.543,0,0,1,2.2-.854l.066-1.416h1.33l-.066,1.482a3.286,3.286,0,0,1,1.555.629,2.081,2.081,0,0,1,.774,1.185v.96h-1.661a2.264,2.264,0,0,0-.251-.576,1.07,1.07,0,0,0-.483-.4l-.086,2.23h.013a4.279,4.279,0,0,1,2.038.96,2.408,2.408,0,0,1,.748,1.86Zm-5.023-4.15a.945.945,0,0,0,.2.589,1.4,1.4,0,0,0,.715.424l.073-2.025a1.284,1.284,0,0,0-.741.357A.926.926,0,0,0,382.169,40.73ZM385.22,45a1.027,1.027,0,0,0-.205-.649,1.51,1.51,0,0,0-.695-.457l-.086,2.164a1.291,1.291,0,0,0,.735-.364,1,1,0,0,0,.251-.7Z" transform="translate(443.714 778.134)" fill="#fff"/>
    <circle id="Ellipse_21" data-name="Ellipse 21" cx="7.862" cy="7.862" r="7.862" transform="translate(876.36 859.97)" fill="#ccb043" opacity="0.5"/>
    <circle id="Ellipse_22" data-name="Ellipse 22" cx="7.862" cy="7.862" r="7.862" transform="translate(875.85 858.951)" fill="#ccb043"/>
    <path id="Path_81558" data-name="Path 81558" d="M466.566,104.125a7.859,7.859,0,0,1,7.849,7.518c0-.119.02-.232.02-.351a7.863,7.863,0,0,0-15.725,0c0,.119.013.232.02.351a7.859,7.859,0,0,1,7.849-7.518Z" transform="translate(417.147 755.521)" fill="#fff"/>
    <path id="Path_81559" data-name="Path 81559" d="M466.393,119.317a8.193,8.193,0,1,1,8.193-8.193A8.2,8.2,0,0,1,466.393,119.317Zm0-15.732a7.532,7.532,0,1,0,7.532,7.532A7.54,7.54,0,0,0,466.393,103.585Z" transform="translate(417.319 755.69)" fill="#1d1a1e"/>
    <path id="Path_81560" data-name="Path 81560" d="M467.246,118.5a6.526,6.526,0,1,1,6.526-6.526A6.53,6.53,0,0,1,467.246,118.5Zm0-12.72a6.195,6.195,0,1,0,6.195,6.195A6.2,6.2,0,0,0,467.246,105.781Z" transform="translate(416.467 754.837)" fill="#fff"/>
    <circle id="Ellipse_23" data-name="Ellipse 23" cx="17.009" cy="17.009" r="17.009" transform="matrix(0.159, -0.987, 0.987, 0.159, 852.371, 842.301)" fill="#ccb043" opacity="0.5"/>
    <circle id="Ellipse_24" data-name="Ellipse 24" cx="17.009" cy="17.009" r="17.009" transform="matrix(0.159, -0.987, 0.987, 0.159, 851.052, 840.976)" fill="#ccb043"/>
    <path id="Path_81561" data-name="Path 81561" d="M442.019,29.962a17.012,17.012,0,0,1,17,16.678c0-.113.007-.218.007-.331a17.009,17.009,0,1,0-34.018,0c0,.113,0,.225.007.331A17.007,17.007,0,0,1,442.019,29.962Z" transform="translate(428.543 780.589)" fill="#fff"/>
    <path id="Path_81562" data-name="Path 81562" d="M441.85,63.47a17.34,17.34,0,1,1,17.34-17.34A17.357,17.357,0,0,1,441.85,63.47Zm0-34.018A16.678,16.678,0,1,0,458.528,46.13,16.7,16.7,0,0,0,441.85,29.452Z" transform="translate(428.712 780.762)" fill="#1d1a1e"/>
    <path id="Path_81563" data-name="Path 81563" d="M350.348,49.935a.328.328,0,0,1-.331-.331,3.3,3.3,0,0,0-.258-1.291,3.159,3.159,0,0,0-.715-1.052,3.447,3.447,0,0,0-1.052-.715,3.328,3.328,0,0,0-1.291-.258.331.331,0,0,1,0-.662,3.3,3.3,0,0,0,1.291-.258,3.261,3.261,0,0,0,1.052-.715,3.447,3.447,0,0,0,.715-1.052,3.3,3.3,0,0,0,.258-1.291.331.331,0,0,1,.662,0,3.3,3.3,0,0,0,.258,1.291,3.159,3.159,0,0,0,.715,1.052,3.447,3.447,0,0,0,1.052.715,3.328,3.328,0,0,0,1.291.258.331.331,0,0,1,0,.662,3.3,3.3,0,0,0-1.291.258,3.261,3.261,0,0,0-1.052.715,3.448,3.448,0,0,0-.715,1.052,3.3,3.3,0,0,0-.258,1.291A.328.328,0,0,1,350.348,49.935Zm-2.058-3.984a4.061,4.061,0,0,1,1.224.834,3.944,3.944,0,0,1,.834,1.224,4.06,4.06,0,0,1,.834-1.224,3.944,3.944,0,0,1,1.224-.834,4.06,4.06,0,0,1-1.224-.834,3.943,3.943,0,0,1-.834-1.224,4.061,4.061,0,0,1-.834,1.224A3.943,3.943,0,0,1,348.289,45.951Z" transform="translate(455.137 776.301)" fill="#1d1a1e"/>
    <path id="Path_81564" data-name="Path 81564" d="M308.345,54.387h0v-.344l.033.344Zm0,0a2.981,2.981,0,0,1-.754-.093l.179-.675a2.354,2.354,0,0,0,.569.073v.695Zm.768-.1-.179-.668a2.245,2.245,0,0,0,.536-.225l.351.6A2.9,2.9,0,0,1,309.113,54.288ZM306.889,54a3.153,3.153,0,0,1-.609-.463l.49-.49a1.989,1.989,0,0,0,.463.351l-.344.6Zm3.534-.477-.49-.49a2.22,2.22,0,0,0,.357-.463l.6.351a3.148,3.148,0,0,1-.463.609Zm-4.606-.589a2.98,2.98,0,0,1-.3-.7l.668-.185a2.245,2.245,0,0,0,.225.536l-.6.351Zm5.367-.721-.675-.179a2.408,2.408,0,0,0,.073-.576l.695-.026v.026a2.877,2.877,0,0,1-.1.754Zm-5.765-.741v-.013a3.073,3.073,0,0,1,.093-.741l.675.179a2.3,2.3,0,0,0-.073.563l-.695.013Zm5.083-.615a2.122,2.122,0,0,0-.232-.536l.6-.357a2.731,2.731,0,0,1,.3.7l-.668.185Zm-4.1-.5-.6-.344a2.959,2.959,0,0,1,.463-.609l.5.49a2.137,2.137,0,0,0-.351.463Zm3.508-.49a2.137,2.137,0,0,0-.463-.351l.344-.6a2.765,2.765,0,0,1,.609.457Zm-2.7-.331-.351-.6a2.73,2.73,0,0,1,.7-.3l.185.668a2.245,2.245,0,0,0-.536.225Zm1.694-.238a2.26,2.26,0,0,0-.563-.073l-.02-.695h.02a3.019,3.019,0,0,1,.735.093Z" transform="translate(468.986 774.086)" fill="#1d1a1e"/>
    <g id="Group_21813" data-name="Group 21813" transform="translate(786.861 809.784)">
      <path id="Path_81565" data-name="Path 81565" d="M327.971,30.748a.31.31,0,0,1-.232-.1.328.328,0,0,1,0-.47l.94-.94a.332.332,0,0,1,.47.47l-.94.94a.333.333,0,0,1-.232.1Z" transform="translate(-325.39 -29.14)" fill="#ccb043"/>
      <path id="Path_81566" data-name="Path 81566" d="M325.511,30.768a.31.31,0,0,1-.232-.1l-.94-.94a.332.332,0,0,1,.47-.47l.94.94a.328.328,0,0,1,0,.47.332.332,0,0,1-.232.1Z" transform="translate(-324.24 -29.147)" fill="#ccb043"/>
      <path id="Path_81567" data-name="Path 81567" d="M324.581,34.168a.31.31,0,0,1-.232-.1.328.328,0,0,1,0-.47l.94-.94a.332.332,0,0,1,.47.47l-.94.94a.332.332,0,0,1-.232.1Z" transform="translate(-324.243 -30.297)" fill="#ccb043"/>
      <path id="Path_81568" data-name="Path 81568" d="M328.931,34.158a.31.31,0,0,1-.232-.1l-.94-.94a.332.332,0,0,1,.47-.47l.94.94a.328.328,0,0,1,0,.47.333.333,0,0,1-.232.1Z" transform="translate(-325.397 -30.293)" fill="#ccb043"/>
    </g>
    <g id="Group_21818" data-name="Group 21818" transform="translate(861.82 814.76)">
      <path id="Path_81569" data-name="Path 81569" d="M441.714,52.69h13.428a1.7,1.7,0,0,1,1.694,1.694V64.775a1.7,1.7,0,0,1-1.694,1.694H441.714a1.7,1.7,0,0,1-1.694-1.694V54.384a1.7,1.7,0,0,1,1.694-1.694Z" transform="translate(-438.352 -42.081)" fill="#edcd4f"/>
      <path id="Path_81570" data-name="Path 81570" d="M450.064,39.18h-.1A4.826,4.826,0,0,0,445.14,44v4.117h1.694V44a3.132,3.132,0,0,1,3.13-3.13h.1a3.132,3.132,0,0,1,3.13,3.13v4.117h1.694V44A4.826,4.826,0,0,0,450.064,39.18Z" transform="translate(-440.084 -37.512)" fill="#edcd4f"/>
      <g id="Group_21814" data-name="Group 21814" transform="translate(0 8.948)">
        <rect id="Rectangle_263" data-name="Rectangle 263" width="16.817" height="13.779" rx="2.56" transform="translate(0.331 0.324)" fill="#fff"/>
        <path id="Path_81571" data-name="Path 81571" d="M452.954,64.621H439.525A2.025,2.025,0,0,1,437.5,62.6V52.205a2.025,2.025,0,0,1,2.025-2.025h13.428a2.025,2.025,0,0,1,2.025,2.025V62.6A2.025,2.025,0,0,1,452.954,64.621ZM439.525,50.842a1.366,1.366,0,0,0-1.363,1.363V62.6a1.361,1.361,0,0,0,1.363,1.363h13.428a1.366,1.366,0,0,0,1.363-1.363V52.205a1.361,1.361,0,0,0-1.363-1.363Z" transform="translate(-437.5 -50.18)" fill="#1d1a1e"/>
      </g>
      <g id="Group_21815" data-name="Group 21815" transform="translate(6.493 12.853)">
        <path id="Path_81572" data-name="Path 81572" d="M451.675,58.513a1.933,1.933,0,1,0-2.78,1.727v3.316h1.694V60.24A1.926,1.926,0,0,0,451.675,58.513Z" transform="translate(-447.479 -56.249)" fill="#f5f5f5"/>
        <path id="Path_81573" data-name="Path 81573" d="M450.421,63.717h-1.694a.328.328,0,0,1-.331-.331V60.269a2.243,2.243,0,0,1-1.085-1.926,2.263,2.263,0,1,1,4.527,0,2.243,2.243,0,0,1-1.085,1.926v3.117A.328.328,0,0,1,450.421,63.717Zm-1.363-.662h1.032V60.071a.339.339,0,0,1,.185-.3,1.6,1.6,0,0,0-.7-3.038,1.6,1.6,0,0,0-.7,3.038.331.331,0,0,1,.185.3v2.985Z" transform="translate(-447.31 -56.08)" fill="#ccb043"/>
      </g>
      <g id="Group_21816" data-name="Group 21816" transform="translate(3.395)">
        <path id="Path_81574" data-name="Path 81574" d="M448.054,37.16h-.1a4.826,4.826,0,0,0-4.825,4.825V46.1h1.694V41.985a3.132,3.132,0,0,1,3.13-3.13h.1a3.132,3.132,0,0,1,3.13,3.13V46.1h1.694V41.985A4.826,4.826,0,0,0,448.054,37.16Z" transform="translate(-442.799 -36.829)" fill="#fff"/>
        <path id="Path_81575" data-name="Path 81575" d="M452.71,46.263h-1.694a.328.328,0,0,1-.331-.331V41.816a2.8,2.8,0,0,0-2.8-2.8h-.1a2.8,2.8,0,0,0-2.8,2.8v4.117a.328.328,0,0,1-.331.331h-1.694a.328.328,0,0,1-.331-.331V41.816a5.162,5.162,0,0,1,5.156-5.156h.1a5.162,5.162,0,0,1,5.156,5.156v4.117A.328.328,0,0,1,452.71,46.263Zm-1.363-.662h1.032V41.816a4.5,4.5,0,0,0-4.494-4.494h-.1a4.5,4.5,0,0,0-4.494,4.494V45.6h1.032V41.816a3.469,3.469,0,0,1,3.461-3.461h.1a3.469,3.469,0,0,1,3.461,3.461Z" transform="translate(-442.63 -36.66)" fill="#1d1a1e"/>
      </g>
      <g id="Group_21817" data-name="Group 21817" transform="translate(15.335 13.898)">
        <path id="Path_81576" data-name="Path 81576" d="M462.483,58.322H461a.331.331,0,0,1,0-.662h1.483a.331.331,0,0,1,0,.662Z" transform="translate(-460.67 -57.66)" fill="#1d1a1e"/>
        <path id="Path_81577" data-name="Path 81577" d="M462.483,60.552H461a.331.331,0,0,1,0-.662h1.483a.331.331,0,0,1,0,.662Z" transform="translate(-460.67 -58.414)" fill="#1d1a1e"/>
        <path id="Path_81578" data-name="Path 81578" d="M462.483,62.782H461a.331.331,0,0,1,0-.662h1.483a.331.331,0,0,1,0,.662Z" transform="translate(-460.67 -59.168)" fill="#1d1a1e"/>
      </g>
    </g>
    <path id="Path_81579" data-name="Path 81579" d="M374.452,76.7h-1.621a.331.331,0,0,1,0-.662h1.621a.331.331,0,0,1,0,.662Z" transform="translate(446.301 764.783)" fill="#fff"/>
    <path id="Path_81580" data-name="Path 81580" d="M385.854,76.7h-7.763a.331.331,0,0,1,0-.662h7.763a.331.331,0,0,1,0,.662Z" transform="translate(444.522 764.783)" fill="#fff"/>
    <path id="Path_81581" data-name="Path 81581" d="M414.457,111.492h-1.4a.331.331,0,0,1,0-.662h1.4a.331.331,0,0,1,0,.662Z" transform="translate(432.696 753.018)" fill="#fff"/>
    <path id="Path_81582" data-name="Path 81582" d="M424.255,111.492h-6.684a.331.331,0,0,1,0-.662h6.684a.331.331,0,1,1,0,.662Z" transform="translate(431.171 753.018)" fill="#fff"/>
    <path id="Path_81583" data-name="Path 81583" d="M454.908,163.432h-5.447a.331.331,0,1,1,0-.662h5.447a.331.331,0,0,1,0,.662Z" transform="translate(420.387 735.453)" fill="#ccb043"/>
    <path id="Path_81584" data-name="Path 81584" d="M450.416,145.04l-3.216.126,1.5-2.846Z" transform="translate(421.039 742.369)" fill="#ccb043"/>
    <path id="Path_81585" data-name="Path 81585" d="M446.376,147.513l-3.216.132,1.5-2.846Z" transform="translate(422.406 741.53)" fill="#ccb043"/>
    <path id="Path_81586" data-name="Path 81586" d="M472.017,114.126a2.2,2.2,0,0,1-.7,1.688,2.983,2.983,0,0,1-1.833.754l-.053,1.377h-1.112l.053-1.4a3.155,3.155,0,0,1-1.476-.569,2.22,2.22,0,0,1-.754-.993v-.794h1.377a1.317,1.317,0,0,0,.331.549,1.414,1.414,0,0,0,.589.331l.086-2.012-.093-.02a3.377,3.377,0,0,1-1.674-.774,1.979,1.979,0,0,1-.582-1.509,2.176,2.176,0,0,1,.695-1.688,3,3,0,0,1,1.833-.715l.053-1.185h1.112l-.053,1.238a2.836,2.836,0,0,1,1.3.523,1.7,1.7,0,0,1,.642.986v.8h-1.383a1.675,1.675,0,0,0-.212-.483.84.84,0,0,0-.4-.331l-.073,1.86h.013a3.58,3.58,0,0,1,1.7.8,2.005,2.005,0,0,1,.622,1.555Zm-4.2-3.468a.769.769,0,0,0,.165.49,1.176,1.176,0,0,0,.6.357l.066-1.694a1,1,0,0,0-.616.3.765.765,0,0,0-.205.549Zm2.548,3.567a.885.885,0,0,0-.172-.543,1.257,1.257,0,0,0-.582-.384l-.073,1.807a1.087,1.087,0,0,0,.615-.3.806.806,0,0,0,.212-.589Z" transform="translate(414.634 754.256)" fill="#fff"/>
  </g>
</svg>
