<svg xmlns="http://www.w3.org/2000/svg" xmlns:xlink="http://www.w3.org/1999/xlink" width="65.47" height="41.261" viewBox="0 0 65.47 41.261">
  <defs>
    <linearGradient id="linear-gradient" x1="0.5" y1="1.61" x2="0" gradientUnits="objectBoundingBox">
      <stop offset="0" stop-color="#ef5a2e"/>
      <stop offset="1" stop-color="#ccb043"/>
    </linearGradient>
  </defs>
  <g id="Group_21794" data-name="Group 21794" transform="translate(5391.713 1940.638)">
    <path id="Path_81514" data-name="Path 81514" d="M-5385.611-1927.146s-4.118,3.262-5.491,7.24,0,8.671,0,8.671a18.745,18.745,0,0,1,6.6-6.221c3.989-1.965,9.352-1.638,9.352-1.638l3.729-8.95h-3.291s2.2-3.892,8.629-3.934,31.581,0,31.581,0,3.946-1.34,6.01-3.5a9.072,9.072,0,0,0,2.245-5.155h-38.8s-7.028.651-12.021,3.661a25.282,25.282,0,0,0-7.956,8.378v1.454Z" transform="translate(0)" fill="url(#linear-gradient)"/>
    <path id="Path_81515" data-name="Path 81515" d="M-5314.772-1886.92h32.645a10.924,10.924,0,0,1-3.012,5.792,11.246,11.246,0,0,1-6.962,3.361c-3.043.526-16.291,0-16.291,0l-4.8,13.394a13.667,13.667,0,0,1-4.449,5.1,12.256,12.256,0,0,1-6.422,1.2Z" transform="translate(-52.057 -41.34)" fill="url(#linear-gradient)"/>
  </g>
</svg>
