<svg xmlns="http://www.w3.org/2000/svg" width="144.943" height="19.641" viewBox="0 0 144.943 19.641">
  <g id="Group_22632" data-name="Group 22632" transform="translate(-1025.057 -3284.026)">
    <g id="Group_2447" data-name="Group 2447" transform="translate(1062.797 3284.191)">
      <g id="Mini_card" data-name="Mini card">
        <rect id="Mini_card_Background_" data-name="Mini card (Background)" width="32.009" height="19.354" fill="none"/>
        <rect id="Card_bg" width="32.009" height="19.354" rx="1" fill="#2c2c35"/>
        <g id="Logo_2" data-name="Logo 2" transform="translate(6.526 4.625)">
          <rect id="Logo_2_Background_" data-name="Logo 2 (Background)" width="18.219" height="10.847" fill="none"/>
          <path id="Vector" d="M0,8.528V0H4.928V8.528Z" transform="translate(6.645 1.16)" fill="#ff5f00"/>
          <path id="Vector-2" data-name="Vector" d="M9.112-15.387a5.745,5.745,0,0,0-3.481-1.16A5.53,5.53,0,0,0,0-11.123,5.53,5.53,0,0,0,5.631-5.7a5.745,5.745,0,0,0,3.481-1.16,5.345,5.345,0,0,1-2.151-4.264A5.345,5.345,0,0,1,9.112-15.387Z" transform="translate(0 16.547)" fill="#eb001b"/>
          <path id="Vector-3" data-name="Vector" d="M3.481-5.7A5.747,5.747,0,0,1,0-6.859a5.344,5.344,0,0,0,2.151-4.264A5.344,5.344,0,0,0,0-15.387a5.747,5.747,0,0,1,3.481-1.16,5.53,5.53,0,0,1,5.631,5.424A5.53,5.53,0,0,1,3.481-5.7Z" transform="translate(9.107 16.547)" fill="#f79e1b"/>
        </g>
      </g>
      <g id="Mini_card-2" data-name="Mini card" transform="translate(37.14)">
        <rect id="Mini_card_Background_2" data-name="Mini card (Background)" width="32.009" height="19.354" fill="none"/>
        <g id="Card_bg-2" data-name="Card_bg">
          <rect id="Card_bg-3" data-name="Card_bg" width="32.009" height="19.354" rx="5.678" fill="none"/>
          <rect id="Card_bg-4" data-name="Card_bg" width="32.009" height="19.354" rx="5.678" fill="none"/>
          <rect id="Card_bg-5" data-name="Card_bg" width="32.009" height="19.354" rx="5.678" fill="none"/>
          <rect id="Card_bg-6" data-name="Card_bg" width="32.009" height="19.354" rx="5.678" fill="none"/>
          <rect id="Card_bg-7" data-name="Card_bg" width="32.009" height="19.354" rx="5.678" fill="none"/>
          <rect id="Card_bg-8" data-name="Card_bg" width="32.009" height="19.354" rx="1" fill="#2469eb"/>
        </g>
        <g id="Logo_2-2" data-name="Logo 2" transform="translate(5.955 6.699)">
          <rect id="Logo_2_Background_2" data-name="Logo 2 (Background)" width="20.098" height="6.699" transform="translate(0)" fill="none"/>
          <path id="Logo_1" data-name="Logo 1" d="M11.582,6.7a4.531,4.531,0,0,1-1.859-.342l.3-1.4a3.433,3.433,0,0,0,1.616.4c.606,0,1.032-.261,1.036-.635,0-.288-.175-.433-.791-.783l-.014-.008c-.626-.357-1.483-.845-1.472-1.824a1.876,1.876,0,0,1,.8-1.528A3.367,3.367,0,0,1,13.215,0a4.375,4.375,0,0,1,1.442.3l-.283,1.344a3.617,3.617,0,0,0-1.254-.3H13.1c-.644.011-1.03.289-1.03.551,0,.307.355.509.8.764.179.1.382.218.583.352a1.616,1.616,0,0,1,.9,1.538,1.984,1.984,0,0,1-.687,1.484A3.1,3.1,0,0,1,11.582,6.7Zm-6.6-.1h0l-1.717,0C2.83,4.863,2.4,3.133,1.989,1.46A.88.88,0,0,0,1.42.766C1.137.665.673.512,0,.3V.121H2.711a.766.766,0,0,1,.831.714c.088.48.312,1.71.67,3.673l1.7-4.39,1.7,0L4.986,6.6Zm13.624,0h0l-.188-.971H16.316l-.335.964-1.687,0c.861-2.134,1.628-4.032,2.415-5.973a.742.742,0,0,1,.735-.507h.005l.591,0h.754L20.1,6.6Zm-.97-4.736L16.79,4.3h1.356ZM8.6,6.6h0l-1.614,0L8.324.118,9.94.12,8.6,6.6Z" transform="translate(0 0)" fill="#fff"/>
        </g>
      </g>
    </g>
    <g id="paypal" transform="translate(1137.336 3284.191)">
      <path id="Path_83208" data-name="Path 83208" d="M31.534,7H3.13A1.954,1.954,0,0,0,1,8.708V24.646a1.954,1.954,0,0,0,2.13,1.708h28.4a1.954,1.954,0,0,0,2.13-1.708V8.708A1.954,1.954,0,0,0,31.534,7Z" transform="translate(-1 -7)" fill="#e6e6e6"/>
      <path id="Path_83209" data-name="Path 83209" d="M28.432,19.2H26.838a.221.221,0,0,0-.219.187l-.644,4.087a.133.133,0,0,0,.131.154h.818a.155.155,0,0,0,.153-.131l.183-1.159a.221.221,0,0,1,.219-.187h.5A1.637,1.637,0,0,0,29.8,20.639a1.228,1.228,0,0,0-.2-1.029A1.482,1.482,0,0,0,28.432,19.2Zm.184,1.493c-.087.572-.524.572-.947.572h-.24L27.6,20.2a.133.133,0,0,1,.131-.112c.35,0,.657-.014.81.164A.533.533,0,0,1,28.615,20.7Z" transform="translate(-7.634 -12.257)" fill="#009ee3"/>
      <path id="Path_83210" data-name="Path 83210" d="M8.46,19.2H6.866a.221.221,0,0,0-.219.187L6,23.477a.133.133,0,0,0,.131.154H6.9a.221.221,0,0,0,.219-.187l.174-1.1a.221.221,0,0,1,.219-.187h.5a1.637,1.637,0,0,0,1.814-1.515,1.228,1.228,0,0,0-.2-1.029A1.481,1.481,0,0,0,8.46,19.2ZM8.643,20.7c-.087.572-.524.572-.947.572H7.456L7.625,20.2a.133.133,0,0,1,.131-.112h.11c.287,0,.56,0,.7.164A.533.533,0,0,1,8.643,20.7Z" transform="translate(-3.154 -12.257)" fill="#113984"/>
      <path id="Path_83211" data-name="Path 83211" d="M15.958,21.74h-.763a.133.133,0,0,0-.131.112l-.034.213c-.074-.108-.221-.4-.955-.4a1.755,1.755,0,0,0-1.7,1.535,1.442,1.442,0,0,0,.284,1.173,1.2,1.2,0,0,0,.961.388,1.461,1.461,0,0,0,1.056-.437l-.034.212a.133.133,0,0,0,.131.154h.688a.221.221,0,0,0,.219-.187l.413-2.613A.133.133,0,0,0,15.958,21.74Zm-1.064,1.486a.851.851,0,0,1-.861.729.591.591,0,0,1-.632-.742.854.854,0,0,1,.856-.734.643.643,0,0,1,.509.208A.661.661,0,0,1,14.894,23.225Z" transform="translate(-4.023 -13.318)" fill="#113984"/>
      <path id="Path_83212" data-name="Path 83212" d="M35.93,21.74h-.763a.133.133,0,0,0-.131.112L35,22.065c-.074-.108-.221-.4-.955-.4a1.755,1.755,0,0,0-1.7,1.535,1.442,1.442,0,0,0,.284,1.173,1.2,1.2,0,0,0,.961.388,1.461,1.461,0,0,0,1.056-.437l-.034.212a.133.133,0,0,0,.132.154h.688a.221.221,0,0,0,.219-.187l.413-2.613A.133.133,0,0,0,35.93,21.74Zm-1.064,1.486a.851.851,0,0,1-.861.729.591.591,0,0,1-.632-.742.854.854,0,0,1,.856-.734.643.643,0,0,1,.509.208A.661.661,0,0,1,34.866,23.225Z" transform="translate(-9.344 -13.318)" fill="#009ee3"/>
      <path id="Path_83213" data-name="Path 83213" d="M23.139,21.794h-.767a.222.222,0,0,0-.183.1L21.13,23.45l-.449-1.5a.221.221,0,0,0-.212-.158h-.754a.133.133,0,0,0-.126.176l.845,2.48-.795,1.121a.133.133,0,0,0,.108.209h.766a.223.223,0,0,0,.182-.1L23.247,22A.132.132,0,0,0,23.139,21.794Z" transform="translate(-5.958 -13.373)" fill="#113984"/>
      <path id="Path_83214" data-name="Path 83214" d="M39.746,19.317l-.654,4.162a.133.133,0,0,0,.131.154h.658a.221.221,0,0,0,.219-.187l.645-4.087a.133.133,0,0,0-.131-.154h-.737A.131.131,0,0,0,39.746,19.317Z" transform="translate(-10.929 -12.258)" fill="#009ee3"/>
    </g>
    <g id="apple-card" transform="translate(1025.057 3284.026)">
      <path id="Path_83215" data-name="Path 83215" d="M30.951,7H3.09A1.936,1.936,0,0,0,1,8.733V24.908a1.936,1.936,0,0,0,2.09,1.733H30.951a1.936,1.936,0,0,0,2.09-1.733V8.733A1.936,1.936,0,0,0,30.951,7Z" transform="translate(-1 -7)" fill="#e6e6e6"/>
      <path id="Path_83216" data-name="Path 83216" d="M23.644,23.5a6.148,6.148,0,0,1-.558,1.041c-.362.551-.873,1.238-1.506,1.244-.562.005-.707-.366-1.47-.362s-.923.368-1.485.363c-.633-.006-1.117-.626-1.479-1.178a4.258,4.258,0,0,1-.494-4.314,2.242,2.242,0,0,1,1.8-1.084c.671,0,1.092.368,1.647.368.538,0,.866-.368,1.641-.368a2.19,2.19,0,0,1,1.65.871,1.888,1.888,0,0,0,.25,3.419Z" transform="translate(-3.934 -11.32)" fill="#444" fill-rule="evenodd"/>
      <path id="Path_83217" data-name="Path 83217" d="M25.045,16.394A1.879,1.879,0,0,0,25.463,15a2.032,2.032,0,0,0-1.313.706,1.747,1.747,0,0,0-.429,1.36,1.717,1.717,0,0,0,1.324-.672Z" transform="translate(-7.449 -10.261)" fill="#444" fill-rule="evenodd"/>
    </g>
  </g>
</svg>
