<svg xmlns="http://www.w3.org/2000/svg" width="34.933" height="37.621" viewBox="0 0 34.933 37.621">
  <g id="Group_22414" data-name="Group 22414" transform="translate(-119.38)">
    <path id="Path_83229" data-name="Path 83229" d="M134.714,52.768h8.265a.649.649,0,0,0,.631-.651.657.657,0,0,0-.651-.651H136.8l.729-2.206h9.078l.983,3.508h1.835a.389.389,0,0,1,.384.384V54.44a.389.389,0,0,1-.384.384H134.714a.385.385,0,0,1-.384-.384V53.152a.385.385,0,0,1,.384-.384Z" transform="translate(-5.221 -17.203)" fill="#7e4a97" fill-rule="evenodd"/>
    <path id="Path_83230" data-name="Path 83230" d="M147.155,33.9H143.94v3.052h3.774a4.682,4.682,0,0,0,3.377-1.106,4.283,4.283,0,0,0,1.145-3.228v-4.5c0-.852.4-1.275,1.2-1.275h.879V24.136h-.879c-.794,0-1.2-.423-1.2-1.275v-4.5a4.283,4.283,0,0,0-1.145-3.228,4.682,4.682,0,0,0-3.377-1.106H143.94v3.052h3.215a1.58,1.58,0,0,1,1.751,1.7v3.989a3.63,3.63,0,0,0,.371,1.822,2.043,2.043,0,0,0,1.2.892,2.063,2.063,0,0,0-1.2.892,3.613,3.613,0,0,0-.371,1.822v3.989a1.583,1.583,0,0,1-1.751,1.7h0Zm-20.616,0h3.215v3.052h-3.774A4.682,4.682,0,0,1,122.6,35.85a4.283,4.283,0,0,1-1.145-3.228v-4.5c0-.852-.4-1.275-1.2-1.275h-.879V24.136h.879c.794,0,1.2-.423,1.2-1.275v-4.5a4.283,4.283,0,0,1,1.145-3.228,4.682,4.682,0,0,1,3.377-1.106h3.774v3.052h-3.215a1.58,1.58,0,0,0-1.751,1.7v3.989a3.63,3.63,0,0,1-.371,1.822,2.042,2.042,0,0,1-1.2.892,2.063,2.063,0,0,1,1.2.892,3.613,3.613,0,0,1,.371,1.822v3.989a1.583,1.583,0,0,0,1.751,1.7Z" transform="translate(0 -4.9)" fill="#7e4a97" fill-rule="evenodd"/>
    <path id="Path_83231" data-name="Path 83231" d="M145.028,0h1.627a.339.339,0,0,1,.338.332V1.965a.34.34,0,0,1-.338.338h-1.627a.335.335,0,0,1-.332-.338V.332A.333.333,0,0,1,145.028,0Zm.482,7.419h2.948a.608.608,0,0,1,.605.605v2.948a.608.608,0,0,1-.605.605h-2.948a.608.608,0,0,1-.605-.605V8.024a.608.608,0,0,1,.605-.605Zm-4.054-3.807h2.323a.478.478,0,0,1,.475.475V6.41a.478.478,0,0,1-.475.475h-2.323a.478.478,0,0,1-.475-.475V4.087a.478.478,0,0,1,.475-.475Z" transform="translate(-7.544)" fill="#f59c16" fill-rule="evenodd"/>
    <path id="Path_83232" data-name="Path 83232" d="M139.08,35.083V21.3h5.187q2.977,0,4.041,1.7a3.4,3.4,0,0,1,.534,1.816,3.1,3.1,0,0,1-1.92,2.922,3.224,3.224,0,0,1,2.571,3.345,3.625,3.625,0,0,1-1.419,3.085,6.217,6.217,0,0,1-3.729.911h-5.258Zm1.829-8h2.98a6.864,6.864,0,0,0,1.738-.156,1.8,1.8,0,0,0,1.406-1.881,1.81,1.81,0,0,0-1.269-1.913,7.821,7.821,0,0,0-2.1-.2h-2.753v4.145Zm0,6.364h3.436a7.8,7.8,0,0,0,1.243-.065,2.323,2.323,0,0,0,1.751-1.139,2.381,2.381,0,0,0,.273-1.158,2.031,2.031,0,0,0-1.484-2.134,6.947,6.947,0,0,0-2.017-.228h-3.2v4.725Z" transform="translate(-6.88 -7.439)" fill="#f59c16"/>
  </g>
</svg>
