<svg id="Play_Store" data-name="Play Store" xmlns="http://www.w3.org/2000/svg" width="17.354" height="18.964" viewBox="0 0 17.354 18.964">
  <g id="Group">
    <path id="Vector" d="M0,8.554,8.563,0l2.775,2.772L1.439,8.3A1.862,1.862,0,0,1,0,8.554Z" transform="translate(1.439 10.361)" fill="#fff"/>
    <path id="Vector-2" data-name="Vector" d="M0,16.355V1.119A1.858,1.858,0,0,1,.376,0L9.122,8.737.376,17.474A1.858,1.858,0,0,1,0,16.355Z" transform="translate(0 0.745)" fill="#fff"/>
    <path id="Vector-3" data-name="Vector" d="M3.024,6.041,0,3.021,3.024,0,5.518,1.394a1.863,1.863,0,0,1,0,3.253Z" transform="translate(10.881 6.462)" fill="#fff"/>
    <path id="Vector-4" data-name="Vector" d="M0,.051A1.86,1.86,0,0,1,.426,0,1.866,1.866,0,0,1,1.439.3l9.9,5.533L8.562,8.6Z" transform="translate(1.439)" fill="#fff"/>
  </g>
</svg>
