<svg xmlns="http://www.w3.org/2000/svg" id="flag-icons-sa" width="18.346" height="13.25" viewBox="0 0 18.346 13.25">
  <defs>
    <clipPath id="a">
      <path fill-opacity=".7" d="M-85.3 0h682.6v512H-85.3z"/>
    </clipPath>
  </defs>
   <g id="flag-for-flag-saudi-arabia-svgrepo-com" transform="translate(0 -5)">
    <path id="Path_83416" data-name="Path 83416" d="M16.308,5H2.038A2.038,2.038,0,0,0,0,7.038v9.173A2.038,2.038,0,0,0,2.038,18.25H16.308a2.038,2.038,0,0,0,2.038-2.038V7.038A2.038,2.038,0,0,0,16.308,5Z" fill="#006c35"/>
    <g id="Group_22619" data-name="Group 22619" transform="translate(4.258 8.058)">
      <path id="Path_83417" data-name="Path 83417" d="M8.7,12.693c.322.031.144-.545.261-.649.022-.051.063-.052.066.013v.488a.234.234,0,0,0,.182.239c.085-.007.141,0,.174.078l.04.845s.2.056.2-.475a4.94,4.94,0,0,1-.02-.633c0-.06.077-.063.13-.034.084.059.122.133.252.1.2-.055.319-.151.322-.3a1.332,1.332,0,0,0-.091-.436c.009-.027-.038-.095-.03-.121.036.056.09.051.1,0a.434.434,0,0,0-.172-.265c-.07-.062-.173-.049-.211.08a.708.708,0,0,0,.162.47.463.463,0,0,1,.041.235.126.126,0,0,1-.164-.032s-.158-.119-.158-.145a.564.564,0,0,0-.014-.374.506.506,0,0,0-.1-.206c-.04-.042-.093-.042-.119,0a.707.707,0,0,0,.013.5c.036.107.092.175.066.175-.022.061-.067.046-.1-.023a1.733,1.733,0,0,1-.056-.458c-.014-.12-.03-.378-.109-.443-.048-.066-.12-.034-.145.027a2.143,2.143,0,0,0,.008.35,3.876,3.876,0,0,1,.1.562c.007.266-.153.115-.146-.016a1.191,1.191,0,0,0-.006-.508c-.026-.068-.057-.085-.12-.074-.05,0-.179.138-.216.372a2.116,2.116,0,0,0-.044.228c-.018.121-.1.207-.153-.017-.048-.163-.078-.564-.159-.47-.023.313-.051.865.215.921Z" transform="translate(-8.412 -11.139)" fill="#fff"/>
      <path id="Path_83418" data-name="Path 83418" d="M9.232,14.5a.854.854,0,0,0-.664.538c.279-.135.554-.264.838-.4-.046-.069,0-.13-.175-.136Z" transform="translate(-8.46 -12.716)" fill="#fff"/>
      <path id="Path_83419" data-name="Path 83419" d="M11.084,13.95c.123-.409-.02-.711.047-.709.141.152.339.02.382-.033a.063.063,0,0,1,.1-.009.23.23,0,0,0,.346-.1A3.073,3.073,0,0,0,12,12.677c-.09.028-.157.047-.164.084l-.019.121c-.008.039-.086.041-.089-.009-.034-.155-.176-.176-.261.065-.058.047-.162.056-.173-.014.014-.162-.051-.183-.182-.108-.042-.321-.084-.627-.126-.947.055,0,.1.039.154-.023a1.727,1.727,0,0,0-.233-.541c-.031-.038-.058-.014-.1,0a.16.16,0,0,0-.112.2c.081.492.134.866.215,1.358.012.058-.036.134-.1.126-.105-.071-.132-.216-.312-.21a.351.351,0,0,0-.3.28.681.681,0,0,0,0,.322.263.263,0,0,0,.3.074c.079-.033.145-.112.172-.093s0,.284-.373.485c-.229.1-.411.126-.509-.061-.061-.117,0-.56-.145-.457-.442,1.139,1.035,1.3,1.2.047.016-.051.078-.1.089-.019-.034,1.132-1.142,1.21-1.33.854a1.09,1.09,0,0,1-.065-.383c-.028-.223-.145-.137-.163.084a1.365,1.365,0,0,0-.014.275c.059.894,1.486.51,1.717-.229Zm-.55-.774c-.009.017-.049.01-.079.01a.076.076,0,0,1-.07-.034c-.009-.031.019-.06.032-.083a.077.077,0,0,1,.131.02.086.086,0,0,1-.014.086Z" transform="translate(-8.852 -11.14)" fill="#fff"/>
      <path id="Path_83420" data-name="Path 83420" d="M11.03,12.068a4.33,4.33,0,0,0,.509-.513c-.022-.019-.041-.033-.063-.051a.036.036,0,0,1,0-.061.166.166,0,0,0,.016-.254.252.252,0,0,0-.226,0,.191.191,0,0,0-.033.252c.056.026.112.083.075.114-.172.183-.643.5-.588.511A1.07,1.07,0,0,0,11.03,12.068Zm.311-.755a.079.079,0,0,1,.078.053c.016.036.008.07-.019.076h0c-.026.007-.061-.017-.077-.053S11.314,11.32,11.341,11.313Zm-2.727,2.92c-.069.141-.1.044-.1-.035a1.811,1.811,0,0,1,.02-.4c.017-.112,0-.078-.036-.033a.83.83,0,0,0-.084.737.181.181,0,0,0,.178.059.328.328,0,0,0,.119-.316C8.673,14.2,8.647,14.189,8.614,14.233ZM13.8,11.579c.181.244.354.492.522.745.033.219.057.433.071.646a10.257,10.257,0,0,1,.011,1.285c.076,0,.2-.124.243-.31a7.751,7.751,0,0,0-.013-.867q-.005-.143-.014-.285c.2.328.4.672.588,1.053.07-.033.055-.423.014-.478-.153-.328-.363-.652-.431-.776-.025-.046-.11-.176-.211-.326q-.013-.179-.043-.356c-.032-.218.09.024.073-.1a1.4,1.4,0,0,0-.3-.565c-.046-.065-.044-.078-.115.016a.393.393,0,0,0-.034.179q-.033-.049-.071-.094l-.232-.2c-.051-.037-.177-.1-.2.007a.637.637,0,0,0,.011.231.828.828,0,0,0,.131.2Zm.377-.012c.01.042.02.085.026.128l.008.041q-.032-.045-.067-.088c-.084-.1-.014-.077.033-.082Z" transform="translate(-8.356 -11.044)" fill="#fff"/>
      <path id="Path_83421" data-name="Path 83421" d="M21.229,14.017a2.11,2.11,0,0,1-.711.518c-.03.034.074.178.209.178a.8.8,0,0,0,.608-.487.855.855,0,0,0,.138-.374,8.179,8.179,0,0,0-.151-1.894.306.306,0,0,1,.006-.132c.014-.017.064,0,.091-.043s-.1-.366-.183-.491c-.029-.056-.038-.094-.086.007a.7.7,0,0,0-.079.356c.108.746.141,1.4.211,2.144a.294.294,0,0,1-.053.218ZM24.2,12.126a.977.977,0,0,1-.022-.192c.014-.038.088,0,.115-.039s-.191-.334-.271-.459c-.029-.056-.039-.094-.086.007a.582.582,0,0,0-.047.356,16.876,16.876,0,0,1,.227,2.136.756.756,0,0,1-.045.191,1.52,1.52,0,0,1-.223.259c-.073.055-.23.107-.281.147-.162.094-.162.2-.031.205a.807.807,0,0,0,.676-.323A1.066,1.066,0,0,0,24.324,14,8.107,8.107,0,0,0,24.2,12.126Zm-1.708.63c0-.1.012-.242.017-.328,0-.032.01-.068.041-.076s.086.032.087,0a.456.456,0,0,0-.057-.21.118.118,0,0,0-.21.061c0,.044.02.067.017.107-.006.022-.03.038-.085.011.009-.008-.036-.071-.036-.071-.043-.026-.1,0-.139.025a.211.211,0,0,0-.012.168c.061.116.275.312.377.314Z" transform="translate(-14.318 -11.116)" fill="#fff"/>
      <path id="Path_83422" data-name="Path 83422" d="M19.58,11.76l.455.557c.033.421.042.765.074,1.186,0,.178-.06.334-.112.356,0,0-.079.046-.132,0a1.6,1.6,0,0,1-.193-.257.117.117,0,0,0-.187,0,2.578,2.578,0,0,0-.33.622c-.028.043-.1.08-.189,0a.872.872,0,0,1-.116-.606.671.671,0,0,0-.064.652.513.513,0,0,0,.238.271.167.167,0,0,0,.248-.027c.113-.118.115-.416.168-.476a.1.1,0,0,1,.176-.042.446.446,0,0,0,.161.139.269.269,0,0,0,.355.025.411.411,0,0,0,.19-.231,7.083,7.083,0,0,0,.014-1.226c.079.1.156.208.234.315a7.6,7.6,0,0,1,.042,1.018c-.008.069.24-.2.237-.333,0-.1,0-.2,0-.288.119.179.235.364.345.56.068-.036.046-.42,0-.473-.126-.211-.294-.431-.409-.588-.008-.02-.012-.042-.021-.061a1.287,1.287,0,0,1-.039-.308c-.021-.115-.016-.286-.049-.422a1.49,1.49,0,0,1-.029-.239c.013-.038.064,0,.089-.043a1.521,1.521,0,0,0-.214-.595c-.031-.055-.086-.036-.154.054-.063.059-.039.194-.015.322.06.31.11.607.152.9q-.137-.183-.278-.363l0-.022c0-.006-.014-.267-.026-.329,0-.025-.008-.033.018-.03a.162.162,0,0,0,.049.033c.029.005.054-.043.037-.088l-.263-.485c-.021-.021-.048-.043-.082.006a.191.191,0,0,0-.065.144c.008.115.028.232.036.347l.011.062-.032-.037c-.224-.235.1-.038-.043-.22a1.718,1.718,0,0,0-.265-.259c-.053-.034-.085-.1-.1.012a2.32,2.32,0,0,0-.008.293.4.4,0,0,0,.089.183Zm-4.536.55c.128.053.21-.192.263-.46.036-.075.063-.084.082-.045,0,.357.025.436.117.544a.3.3,0,0,0,.387.007l.159-.159a.1.1,0,0,1,.132-.007c.049.044.042.12.146.173a.322.322,0,0,0,.319-.067c.059-.1.073-.135.1-.172.042-.056.113-.031.113-.013s-.048.062-.02.118c.05.037.061.013.091.005.1-.05.181-.275.181-.275,0-.084-.042-.077-.073-.06s-.042.032-.082.057c-.051.008-.149.041-.2-.034a2.886,2.886,0,0,1-.089-.308c0-.007-.066-.144,0-.153.031.006.1.023.108-.032.032-.054-.07-.208-.139-.286a.151.151,0,0,0-.226-.007c-.057.052-.049.111-.06.166a.259.259,0,0,0,.054.226.689.689,0,0,1,.126.458.185.185,0,0,1-.166.084c-.044-.01-.115-.029-.153-.309-.029-.213.007-.51-.083-.649-.033-.084-.056-.165-.136-.021a.333.333,0,0,0-.046.319.945.945,0,0,1,.052.5.948.948,0,0,1-.1.135.156.156,0,0,1-.2.028.215.215,0,0,1-.12-.17,2.313,2.313,0,0,0-.019-.548.1.1,0,0,0-.166-.033,1.25,1.25,0,0,0-.3.617c-.046.15-.1.107-.13.046-.085-.08-.09-.7-.193-.6-.165.466.093.977.271.927Z" transform="translate(-11.477 -11.006)" fill="#fff"/>
      <path id="Path_83423" data-name="Path 83423" d="M15.517,13.418l-.049-.028-.959,0c-.049-.019-.035-.035,0-.048.229-.031.636-.1.663-.488a.321.321,0,1,0-.63.014c-.009.053.017.156-.036.168-.352.032-.736.252-.749.41-.021.015-.069-.028-.063-.1a1.883,1.883,0,0,0-.242-.818c-.111-.111-.076-.074-.151-.022a.24.24,0,0,0-.054.2s.09.254.166.43a1.338,1.338,0,0,1,.064.579,1.426,1.426,0,0,1-.586.612.294.294,0,0,1-.245,0,.145.145,0,0,1-.064-.141,1.384,1.384,0,0,0,.588-.607.624.624,0,0,0,.016-.437.415.415,0,0,0-.1-.2c.031-.02.12.047.134.007a.639.639,0,0,0-.169-.311.142.142,0,0,0-.207-.012c-.071.04-.087.181-.052.306.038.094.14.11.214.3,0,0,.027.141-.011.194a2.323,2.323,0,0,1-.441.414c-.011.013-.006-.007-.008-.058s.025-.209.017-.21c-.127.082-.169.333-.192.408a5.95,5.95,0,0,0-.894.612c-.11.171.753-.2.854-.241.022.016.02.093.08.162a.455.455,0,0,0,.465.15,1.483,1.483,0,0,0,.673-.56c.026-.038.067-.067.1-.038a1.055,1.055,0,0,0,.955.5c.109-.132.056-.2.012-.223,0,0-.231-.092-.266-.179s.031-.149.135-.2a4.7,4.7,0,0,0,.881-.168.771.771,0,0,1,.1-.3c.037-.063.057-.044.051-.067Zm-.788-.6c.014-.024.062-.023.106,0s.069.066.055.09-.062.023-.107,0S14.714,12.845,14.728,12.82Zm-.386.968c-.1.035-.2.063-.2.211.038.207-.052.136-.106.108a.542.542,0,0,1-.267-.391.1.1,0,0,1,.111-.1,2.993,2.993,0,0,0,.4.045c.112.007.167.095.063.131Zm-3.55-2.3c.11.053.318.031.309-.148,0-.016,0-.069-.006-.083-.022-.052-.084-.04-.1.015,0,.018.008.046-.008.056s-.044,0-.043-.045a.085.085,0,0,0-.018-.042.035.035,0,0,0-.024-.006c-.015,0-.015,0-.023.018a.149.149,0,0,0-.009.041c0,.017-.009.023-.021.027s-.011,0-.022-.006-.016-.011-.016-.023a.141.141,0,0,0-.007-.044.047.047,0,0,0-.027-.015c-.06,0-.064.069-.061.1C10.712,11.335,10.71,11.459,10.792,11.493Z" transform="translate(-9.513 -11.112)" fill="#fff"/>
      <path id="Path_83424" data-name="Path 83424" d="M13.288,12.543a.087.087,0,0,0-.018-.042.035.035,0,0,0-.024-.006c-.015,0-.015,0-.023.018a.153.153,0,0,0-.009.041c0,.018-.009.024-.021.026s-.011,0-.023-.006-.016-.011-.016-.023a.138.138,0,0,0-.007-.044.044.044,0,0,0-.027-.014c-.06,0-.064.069-.061.095,0,.005-.007.128.075.163.111.052.373.022.309-.148q0-.042-.006-.084c-.022-.052-.084-.039-.1.015,0,.018.008.046-.008.056s-.044,0-.042-.046Zm1.731-.36c.11.053.317.031.308-.147q0-.042-.006-.084c-.022-.052-.084-.039-.1.015,0,.018.008.046-.009.056s-.044,0-.043-.045a.085.085,0,0,0-.018-.042.036.036,0,0,0-.024-.006c-.015,0-.015,0-.023.018a.153.153,0,0,0-.009.041c0,.018-.009.024-.021.026s-.011,0-.023-.006-.015-.011-.015-.023a.144.144,0,0,0-.007-.044A.045.045,0,0,0,15,11.926c-.06,0-.064.069-.061.095,0,.005-.006.128.076.162Zm.074-.689c.039.11-.03.215.011.23s.09-.114.11-.234a.364.364,0,0,0-.146-.339c-.06-.014-.146.021-.118.1-.014.039.121.17.143.242Zm1.017,2.581c.077,0,.166-.176.2-.351a2.975,2.975,0,0,0-.02-.528c-.007-.141-.16-1.219-.191-1.326-.037-.2.149-.027.129-.145-.065-.148-.225-.364-.276-.493-.031-.055-.017-.1-.086-.014a1.112,1.112,0,0,0-.061.5A10.357,10.357,0,0,1,16.11,14.074Zm1.914-2.212c.018.055-.027.233.01.249s.082-.123.1-.254c.01-.072-.043-.323-.133-.367a.085.085,0,0,0-.108.111C17.881,11.643,18,11.785,18.024,11.862Zm-6.686,1.863c.033.014.078-.09.1-.187.01-.053-.041-.237-.127-.27-.053-.011-.125,0-.1.082,0,.042.117.093.124.192.017.041-.025.172.01.183ZM9.017,11.374c.017.042-.017.177.018.19s.077-.094.094-.193c.01-.055,0-.242-.125-.28-.052-.012-.125.017-.1.084C8.89,11.206,9,11.315,9.017,11.374Zm2.5.6a.227.227,0,0,0-.074.3.146.146,0,0,0,.158.051c.1.012.152-.179.152-.179s0-.054-.111.048c-.048.009-.054-.009-.066-.036a.232.232,0,0,1,.015-.149C11.606,11.96,11.569,11.939,11.515,11.971Zm.735-.588a.131.131,0,0,0,.06-.089c.015-.074-.079.035-.091-.048s.039-.109.1-.183c0-.051,0-.088-.069-.046a.356.356,0,0,0-.15.25c0,.066-.015.065.028.107S12.187,11.416,12.25,11.384Zm.662.04a.9.9,0,0,0,.068-.316c-.019-.111-.094-.107-.144.016a1.529,1.529,0,0,0-.042.29C12.777,11.486,12.869,11.517,12.912,11.424Zm4.164,1.214s-.511.363-.523.376c-.051.045-.025.2,0,.186a2.027,2.027,0,0,0,.54-.376c.024,0,.036-.2-.017-.186Zm-.063.986c.034.018.124-.093.121-.232.01-.072-.026-.335-.116-.38a.088.088,0,0,0-.1.119c-.013.042.063.188.083.266C17.016,13.451,16.975,13.607,17.013,13.624Zm-2.895.762a.074.074,0,0,0,.094.012,1.788,1.788,0,0,1,.324-.114c.039,0,.037-.106-.025-.11a.367.367,0,0,0-.237.072c-.05.011-.058-.019-.069-.046-.012-.068.028-.115.019-.165a.1.1,0,0,0-.1-.017.657.657,0,0,0-.148.126c-.022.017-.019.031-.013.059s.047.027.081.009.066.023.063.077a.1.1,0,0,0,.009.1Zm3.338.085c-.017.029-.028.073.024.087.1.027.316-.117.316-.119a.07.07,0,0,0,.021-.077c-.021-.024-.068-.01-.1-.014-.015,0-.065-.008-.041-.051a.3.3,0,0,0,.04-.077c.015-.033,0-.055-.052-.073a.412.412,0,0,0-.137,0c-.033.007-.044.021-.05.061,0,.06.039.057.076.081a.065.065,0,0,1,0,.1c-.036.033-.061.051-.1.084Zm-.1,2.645h-.764v-.255a.255.255,0,0,0-.51,0v.255H9.969s0,.51,1.529.51h4.587v.255a.255.255,0,1,0,.51,0v-.255h.51v.255a.255.255,0,1,0,.51,0v-.51A.255.255,0,0,0,17.359,17.115Z" transform="translate(-8.622 -11)" fill="#fff"/>
    </g>
  </g>
</svg>
