<svg xmlns="http://www.w3.org/2000/svg" width="18.416" height="12.037" viewBox="0 0 18.416 12.037">
  <g id="Group_22750" data-name="Group 22750" transform="translate(0 -21.379)">
    <g id="united-states-svgrepo-com" transform="translate(0 21.379)">
      <path id="Path_83443" data-name="Path 83443" d="M17.037,88.276H1.379A1.378,1.378,0,0,0,0,89.652v9.285a1.378,1.378,0,0,0,1.379,1.376H17.037a1.378,1.378,0,0,0,1.379-1.376V89.652A1.378,1.378,0,0,0,17.037,88.276Z" transform="translate(0 -88.276)" fill="#f5f5f5"/>
      <g id="Group_22748" data-name="Group 22748" transform="translate(0 0)">
        <path id="Path_83444" data-name="Path 83444" d="M2.109,89.2H20.373a1.379,1.379,0,0,0-1.3-.928H3.412A1.379,1.379,0,0,0,2.109,89.2Z" transform="translate(-2.033 -88.276)" fill="#ff4b55"/>
        <rect id="Rectangle_3600" data-name="Rectangle 3600" width="18.416" height="0.928" transform="translate(0 3.703)" fill="#ff4b55"/>
        <rect id="Rectangle_3601" data-name="Rectangle 3601" width="18.416" height="0.928" transform="translate(0 1.851)" fill="#ff4b55"/>
        <path id="Path_83445" data-name="Path 83445" d="M0,243.709a.318.318,0,0,0,.318.318h18.1V243.1H0Z" transform="translate(0 -237.544)" fill="#ff4b55"/>
        <rect id="Rectangle_3602" data-name="Rectangle 3602" width="18.416" height="0.928" transform="translate(0 9.258)" fill="#ff4b55"/>
        <path id="Path_83446" data-name="Path 83446" d="M20.373,397.92H2.109a1.38,1.38,0,0,0,1.3.928H19.07A1.379,1.379,0,0,0,20.373,397.92Z" transform="translate(-2.033 -386.811)" fill="#ff4b55"/>
        <rect id="Rectangle_3603" data-name="Rectangle 3603" width="18.416" height="0.928" transform="translate(0 7.406)" fill="#ff4b55"/>
      </g>
      <path id="Path_83447" data-name="Path 83447" d="M.318,94.772H8.255a.318.318,0,0,0,.318-.318V88.593a.318.318,0,0,0-.318-.318H1.379A1.379,1.379,0,0,0,0,89.654v4.8A.318.318,0,0,0,.318,94.772Z" transform="translate(0 -88.275)" fill="#41479b"/>
      <g id="Group_22749" data-name="Group 22749" transform="translate(0.513 0.708)">
        <path id="Path_83448" data-name="Path 83448" d="M14.632,107.988l.07.211.222,0a.03.03,0,0,1,.018.054l-.179.132.067.212a.03.03,0,0,1-.046.033L14.6,108.5l-.181.129a.03.03,0,0,1-.046-.033l.067-.212-.179-.132a.03.03,0,0,1,.018-.054l.222,0,.07-.211A.03.03,0,0,1,14.632,107.988Z" transform="translate(-14.253 -107.968)" fill="#f5f5f5"/>
        <path id="Path_83449" data-name="Path 83449" d="M14.632,138.643l.07.211.222,0a.03.03,0,0,1,.018.054l-.179.132.067.212a.03.03,0,0,1-.046.033l-.181-.129-.181.129a.03.03,0,0,1-.046-.033l.067-.212-.179-.132a.03.03,0,0,1,.018-.054l.222,0,.07-.211A.03.03,0,0,1,14.632,138.643Z" transform="translate(-14.253 -137.52)" fill="#f5f5f5"/>
        <path id="Path_83450" data-name="Path 83450" d="M14.632,169.3l.07.211.222,0a.03.03,0,0,1,.018.054l-.179.132.067.212a.03.03,0,0,1-.046.033l-.181-.129-.181.129a.03.03,0,0,1-.046-.033l.067-.212-.179-.132a.03.03,0,0,1,.018-.054l.222,0,.07-.211A.03.03,0,0,1,14.632,169.3Z" transform="translate(-14.253 -167.072)" fill="#f5f5f5"/>
        <path id="Path_83451" data-name="Path 83451" d="M14.632,199.951l.07.211.222,0a.03.03,0,0,1,.018.054l-.179.132.067.212a.03.03,0,0,1-.046.033l-.181-.129-.181.129a.03.03,0,0,1-.046-.033l.067-.212-.179-.132a.03.03,0,0,1,.018-.054l.222,0,.07-.211A.03.03,0,0,1,14.632,199.951Z" transform="translate(-14.253 -196.623)" fill="#f5f5f5"/>
        <path id="Path_83452" data-name="Path 83452" d="M14.632,230.606l.07.211.222,0a.03.03,0,0,1,.018.054l-.179.132.067.212a.03.03,0,0,1-.046.033l-.181-.129-.181.129a.03.03,0,0,1-.046-.033l.067-.212-.179-.132a.03.03,0,0,1,.018-.054l.222,0,.07-.211A.03.03,0,0,1,14.632,230.606Z" transform="translate(-14.253 -226.175)" fill="#f5f5f5"/>
        <path id="Path_83453" data-name="Path 83453" d="M38.425,123.018l.07.211.222,0a.03.03,0,0,1,.018.054l-.179.132.067.212a.03.03,0,0,1-.046.033l-.181-.129-.181.129a.03.03,0,0,1-.046-.033l.067-.212-.179-.132a.03.03,0,0,1,.018-.054l.222,0,.07-.211A.03.03,0,0,1,38.425,123.018Z" transform="translate(-37.19 -122.457)" fill="#f5f5f5"/>
        <path id="Path_83454" data-name="Path 83454" d="M38.425,153.672l.07.211.222,0a.03.03,0,0,1,.018.054l-.179.132.067.212a.03.03,0,0,1-.046.033l-.181-.129-.181.129a.03.03,0,0,1-.046-.033l.067-.212-.179-.132a.03.03,0,0,1,.018-.054l.222,0,.07-.211A.03.03,0,0,1,38.425,153.672Z" transform="translate(-37.19 -152.009)" fill="#f5f5f5"/>
        <path id="Path_83455" data-name="Path 83455" d="M38.425,184.326l.07.211.222,0a.03.03,0,0,1,.018.054l-.179.132.067.212a.03.03,0,0,1-.046.033l-.181-.129-.181.129a.03.03,0,0,1-.046-.033l.067-.212-.179-.132a.03.03,0,0,1,.018-.054l.222,0,.07-.211A.03.03,0,0,1,38.425,184.326Z" transform="translate(-37.19 -181.56)" fill="#f5f5f5"/>
        <path id="Path_83456" data-name="Path 83456" d="M38.425,214.981l.07.211.222,0a.03.03,0,0,1,.018.054l-.179.132.067.212a.03.03,0,0,1-.046.033L38.4,215.5l-.181.129a.03.03,0,0,1-.046-.033l.067-.212-.179-.132a.03.03,0,0,1,.018-.054l.222,0,.07-.211A.03.03,0,0,1,38.425,214.981Z" transform="translate(-37.19 -211.112)" fill="#f5f5f5"/>
        <path id="Path_83457" data-name="Path 83457" d="M62.218,107.988l.07.211.222,0a.03.03,0,0,1,.018.054l-.179.132.067.212a.03.03,0,0,1-.046.033l-.181-.129-.181.129a.03.03,0,0,1-.046-.033l.067-.212-.179-.132a.03.03,0,0,1,.018-.054l.222,0,.07-.211A.03.03,0,0,1,62.218,107.988Z" transform="translate(-60.127 -107.968)" fill="#f5f5f5"/>
        <path id="Path_83458" data-name="Path 83458" d="M62.218,138.643l.07.211.222,0a.03.03,0,0,1,.018.054l-.179.132.067.212a.03.03,0,0,1-.046.033l-.181-.129-.181.129a.03.03,0,0,1-.046-.033l.067-.212-.179-.132a.03.03,0,0,1,.018-.054l.222,0,.07-.211A.03.03,0,0,1,62.218,138.643Z" transform="translate(-60.127 -137.52)" fill="#f5f5f5"/>
        <path id="Path_83459" data-name="Path 83459" d="M62.218,169.3l.07.211.222,0a.03.03,0,0,1,.018.054l-.179.132.067.212a.03.03,0,0,1-.046.033l-.181-.129-.181.129a.03.03,0,0,1-.046-.033l.067-.212-.179-.132a.03.03,0,0,1,.018-.054l.222,0,.07-.211A.03.03,0,0,1,62.218,169.3Z" transform="translate(-60.127 -167.072)" fill="#f5f5f5"/>
        <path id="Path_83460" data-name="Path 83460" d="M62.218,199.951l.07.211.222,0a.03.03,0,0,1,.018.054l-.179.132.067.212a.03.03,0,0,1-.046.033l-.181-.129-.181.129a.03.03,0,0,1-.046-.033l.067-.212-.179-.132a.03.03,0,0,1,.018-.054l.222,0,.07-.211A.03.03,0,0,1,62.218,199.951Z" transform="translate(-60.127 -196.623)" fill="#f5f5f5"/>
        <path id="Path_83461" data-name="Path 83461" d="M62.218,230.606l.07.211.222,0a.03.03,0,0,1,.018.054l-.179.132.067.212a.03.03,0,0,1-.046.033l-.181-.129-.181.129a.03.03,0,0,1-.046-.033L62.03,231l-.179-.132a.03.03,0,0,1,.018-.054l.222,0,.07-.211A.03.03,0,0,1,62.218,230.606Z" transform="translate(-60.127 -226.175)" fill="#f5f5f5"/>
        <path id="Path_83462" data-name="Path 83462" d="M86.012,123.018l.07.211.222,0a.03.03,0,0,1,.018.054l-.179.132.067.212a.03.03,0,0,1-.046.033l-.181-.129-.181.129a.03.03,0,0,1-.046-.033l.067-.212-.179-.132a.03.03,0,0,1,.018-.054l.222,0,.07-.211A.03.03,0,0,1,86.012,123.018Z" transform="translate(-83.065 -122.457)" fill="#f5f5f5"/>
        <path id="Path_83463" data-name="Path 83463" d="M86.012,153.672l.07.211.222,0a.03.03,0,0,1,.018.054l-.179.132.067.212a.03.03,0,0,1-.046.033l-.181-.129-.181.129a.03.03,0,0,1-.046-.033l.067-.212-.179-.132a.03.03,0,0,1,.018-.054l.222,0,.07-.211A.03.03,0,0,1,86.012,153.672Z" transform="translate(-83.065 -152.009)" fill="#f5f5f5"/>
        <path id="Path_83464" data-name="Path 83464" d="M86.012,184.326l.07.211.222,0a.03.03,0,0,1,.018.054l-.179.132.067.212a.03.03,0,0,1-.046.033l-.181-.129-.181.129a.03.03,0,0,1-.046-.033l.067-.212-.179-.132a.03.03,0,0,1,.018-.054l.222,0,.07-.211A.03.03,0,0,1,86.012,184.326Z" transform="translate(-83.065 -181.56)" fill="#f5f5f5"/>
        <path id="Path_83465" data-name="Path 83465" d="M86.012,214.981l.07.211.222,0a.03.03,0,0,1,.018.054l-.179.132.067.212a.03.03,0,0,1-.046.033l-.181-.129-.181.129a.03.03,0,0,1-.046-.033l.067-.212-.179-.132a.03.03,0,0,1,.018-.054l.222,0,.07-.211A.03.03,0,0,1,86.012,214.981Z" transform="translate(-83.065 -211.112)" fill="#f5f5f5"/>
        <path id="Path_83466" data-name="Path 83466" d="M109.8,107.988l.07.211.222,0a.03.03,0,0,1,.018.054l-.179.132.067.212a.03.03,0,0,1-.046.033l-.181-.129-.181.129a.03.03,0,0,1-.046-.033l.067-.212-.179-.132a.03.03,0,0,1,.018-.054l.222,0,.07-.211A.03.03,0,0,1,109.8,107.988Z" transform="translate(-106.001 -107.968)" fill="#f5f5f5"/>
        <path id="Path_83467" data-name="Path 83467" d="M109.8,138.643l.07.211.222,0a.03.03,0,0,1,.018.054l-.179.132.067.212a.03.03,0,0,1-.046.033l-.181-.129-.181.129a.03.03,0,0,1-.046-.033l.067-.212-.179-.132a.03.03,0,0,1,.018-.054l.222,0,.07-.211A.03.03,0,0,1,109.8,138.643Z" transform="translate(-106.001 -137.52)" fill="#f5f5f5"/>
        <path id="Path_83468" data-name="Path 83468" d="M109.8,169.3l.07.211.222,0a.03.03,0,0,1,.018.054l-.179.132.067.212a.03.03,0,0,1-.046.033l-.181-.129-.181.129a.03.03,0,0,1-.046-.033l.067-.212-.179-.132a.03.03,0,0,1,.018-.054l.222,0,.07-.211A.03.03,0,0,1,109.8,169.3Z" transform="translate(-106.001 -167.071)" fill="#f5f5f5"/>
        <path id="Path_83469" data-name="Path 83469" d="M109.8,199.951l.07.211.222,0a.03.03,0,0,1,.018.054l-.179.132.067.212a.03.03,0,0,1-.046.033l-.181-.129-.181.129a.03.03,0,0,1-.046-.033l.067-.212-.179-.132a.03.03,0,0,1,.018-.054l.222,0,.07-.211A.03.03,0,0,1,109.8,199.951Z" transform="translate(-106.001 -196.623)" fill="#f5f5f5"/>
        <path id="Path_83470" data-name="Path 83470" d="M109.8,230.606l.07.211.222,0a.03.03,0,0,1,.018.054l-.179.132.067.212a.03.03,0,0,1-.046.033l-.181-.129-.181.129a.03.03,0,0,1-.046-.033l.067-.212-.179-.132a.03.03,0,0,1,.018-.054l.222,0,.07-.211A.03.03,0,0,1,109.8,230.606Z" transform="translate(-106.001 -226.175)" fill="#f5f5f5"/>
        <path id="Path_83471" data-name="Path 83471" d="M133.6,123.018l.07.211.222,0a.03.03,0,0,1,.018.054l-.179.132.067.212a.03.03,0,0,1-.046.033l-.181-.129-.181.129a.03.03,0,0,1-.046-.033l.067-.212-.179-.132a.03.03,0,0,1,.018-.054l.222,0,.07-.211A.03.03,0,0,1,133.6,123.018Z" transform="translate(-128.94 -122.457)" fill="#f5f5f5"/>
        <path id="Path_83472" data-name="Path 83472" d="M133.6,153.672l.07.211.222,0a.03.03,0,0,1,.018.054l-.179.132.067.212a.03.03,0,0,1-.046.033l-.181-.129-.181.129a.03.03,0,0,1-.046-.033l.067-.212-.179-.132a.03.03,0,0,1,.018-.054l.222,0,.07-.211A.03.03,0,0,1,133.6,153.672Z" transform="translate(-128.94 -152.009)" fill="#f5f5f5"/>
        <path id="Path_83473" data-name="Path 83473" d="M133.6,184.326l.07.211.222,0a.03.03,0,0,1,.018.054l-.179.132.067.212a.03.03,0,0,1-.046.033l-.181-.129-.181.129a.03.03,0,0,1-.046-.033l.067-.212-.179-.132a.03.03,0,0,1,.018-.054l.222,0,.07-.211A.03.03,0,0,1,133.6,184.326Z" transform="translate(-128.94 -181.56)" fill="#f5f5f5"/>
        <path id="Path_83474" data-name="Path 83474" d="M133.6,214.981l.07.211.222,0a.03.03,0,0,1,.018.054l-.179.132.067.212a.03.03,0,0,1-.046.033l-.181-.129-.181.129a.03.03,0,0,1-.046-.033l.067-.212-.179-.132a.03.03,0,0,1,.018-.054l.222,0,.07-.211A.03.03,0,0,1,133.6,214.981Z" transform="translate(-128.94 -211.112)" fill="#f5f5f5"/>
        <path id="Path_83475" data-name="Path 83475" d="M157.392,107.988l.07.211.222,0a.03.03,0,0,1,.018.054l-.179.132.067.212a.03.03,0,0,1-.046.033l-.181-.129-.181.129a.03.03,0,0,1-.046-.033l.067-.212-.179-.132a.03.03,0,0,1,.018-.054l.222,0,.07-.211A.03.03,0,0,1,157.392,107.988Z" transform="translate(-151.878 -107.968)" fill="#f5f5f5"/>
        <path id="Path_83476" data-name="Path 83476" d="M157.392,138.643l.07.211.222,0a.03.03,0,0,1,.018.054l-.179.132.067.212a.03.03,0,0,1-.046.033l-.181-.129-.181.129a.03.03,0,0,1-.046-.033l.067-.212-.179-.132a.03.03,0,0,1,.018-.054l.222,0,.07-.211A.03.03,0,0,1,157.392,138.643Z" transform="translate(-151.878 -137.52)" fill="#f5f5f5"/>
        <path id="Path_83477" data-name="Path 83477" d="M157.392,169.3l.07.211.222,0a.03.03,0,0,1,.018.054l-.179.132.067.212a.03.03,0,0,1-.046.033l-.181-.129-.181.129a.03.03,0,0,1-.046-.033l.067-.212-.179-.132a.03.03,0,0,1,.018-.054l.222,0,.07-.211A.03.03,0,0,1,157.392,169.3Z" transform="translate(-151.878 -167.072)" fill="#f5f5f5"/>
        <path id="Path_83478" data-name="Path 83478" d="M157.392,199.951l.07.211.222,0a.03.03,0,0,1,.018.054l-.179.132.067.212a.03.03,0,0,1-.046.033l-.181-.129-.181.129a.03.03,0,0,1-.046-.033l.067-.212-.179-.132a.03.03,0,0,1,.018-.054l.222,0,.07-.211A.03.03,0,0,1,157.392,199.951Z" transform="translate(-151.878 -196.623)" fill="#f5f5f5"/>
        <path id="Path_83479" data-name="Path 83479" d="M157.392,230.606l.07.211.222,0a.03.03,0,0,1,.018.054l-.179.132.067.212a.03.03,0,0,1-.046.033l-.181-.129-.181.129a.03.03,0,0,1-.046-.033L157.2,231l-.179-.132a.03.03,0,0,1,.018-.054l.222,0,.07-.211A.03.03,0,0,1,157.392,230.606Z" transform="translate(-151.878 -226.175)" fill="#f5f5f5"/>
        <path id="Path_83480" data-name="Path 83480" d="M181.185,123.018l.07.211.222,0a.03.03,0,0,1,.018.054l-.179.132.067.212a.03.03,0,0,1-.046.033l-.181-.129-.181.129a.03.03,0,0,1-.046-.033l.067-.212-.179-.132a.03.03,0,0,1,.018-.054l.222,0,.07-.211A.03.03,0,0,1,181.185,123.018Z" transform="translate(-174.815 -122.457)" fill="#f5f5f5"/>
        <path id="Path_83481" data-name="Path 83481" d="M181.185,153.672l.07.211.222,0a.03.03,0,0,1,.018.054l-.179.132.067.212a.03.03,0,0,1-.046.033l-.181-.129-.181.129a.03.03,0,0,1-.046-.033l.067-.212-.179-.132a.03.03,0,0,1,.018-.054l.222,0,.07-.211A.03.03,0,0,1,181.185,153.672Z" transform="translate(-174.815 -152.009)" fill="#f5f5f5"/>
        <path id="Path_83482" data-name="Path 83482" d="M181.185,184.326l.07.211.222,0a.03.03,0,0,1,.018.054l-.179.132.067.212a.03.03,0,0,1-.046.033l-.181-.129-.181.129a.03.03,0,0,1-.046-.033l.067-.212-.179-.132a.03.03,0,0,1,.018-.054l.222,0,.07-.211A.03.03,0,0,1,181.185,184.326Z" transform="translate(-174.815 -181.56)" fill="#f5f5f5"/>
        <path id="Path_83483" data-name="Path 83483" d="M181.185,214.981l.07.211.222,0a.03.03,0,0,1,.018.054l-.179.132.067.212a.03.03,0,0,1-.046.033l-.181-.129-.181.129a.03.03,0,0,1-.046-.033l.067-.212-.179-.132a.03.03,0,0,1,.018-.054l.222,0,.07-.211A.03.03,0,0,1,181.185,214.981Z" transform="translate(-174.815 -211.112)" fill="#f5f5f5"/>
        <path id="Path_83484" data-name="Path 83484" d="M204.979,107.988l.07.211.222,0a.03.03,0,0,1,.018.054l-.179.132.067.212a.03.03,0,0,1-.046.033l-.181-.129-.181.129a.03.03,0,0,1-.046-.033l.067-.212-.179-.132a.03.03,0,0,1,.018-.054l.222,0,.07-.211A.03.03,0,0,1,204.979,107.988Z" transform="translate(-197.753 -107.968)" fill="#f5f5f5"/>
        <path id="Path_83485" data-name="Path 83485" d="M204.979,138.643l.07.211.222,0a.03.03,0,0,1,.018.054l-.179.132.067.212a.03.03,0,0,1-.046.033l-.181-.129-.181.129a.03.03,0,0,1-.046-.033l.067-.212-.179-.132a.03.03,0,0,1,.018-.054l.222,0,.07-.211A.03.03,0,0,1,204.979,138.643Z" transform="translate(-197.753 -137.52)" fill="#f5f5f5"/>
        <path id="Path_83486" data-name="Path 83486" d="M204.979,169.3l.07.211.222,0a.03.03,0,0,1,.018.054l-.179.132.067.212a.03.03,0,0,1-.046.033l-.181-.129-.181.129a.03.03,0,0,1-.046-.033l.067-.212-.179-.132a.03.03,0,0,1,.018-.054l.222,0,.07-.211A.03.03,0,0,1,204.979,169.3Z" transform="translate(-197.753 -167.072)" fill="#f5f5f5"/>
        <path id="Path_83487" data-name="Path 83487" d="M204.979,199.951l.07.211.222,0a.03.03,0,0,1,.018.054l-.179.132.067.212a.03.03,0,0,1-.046.033l-.181-.129-.181.129a.03.03,0,0,1-.046-.033l.067-.212-.179-.132a.03.03,0,0,1,.018-.054l.222,0,.07-.211A.03.03,0,0,1,204.979,199.951Z" transform="translate(-197.753 -196.623)" fill="#f5f5f5"/>
        <path id="Path_83488" data-name="Path 83488" d="M204.979,230.606l.07.211.222,0a.03.03,0,0,1,.018.054l-.179.132.067.212a.03.03,0,0,1-.046.033l-.181-.129-.181.129a.03.03,0,0,1-.046-.033l.067-.212-.179-.132a.03.03,0,0,1,.018-.054l.222,0,.07-.211A.03.03,0,0,1,204.979,230.606Z" transform="translate(-197.753 -226.175)" fill="#f5f5f5"/>
      </g>
    </g>
  </g>
</svg>
