<svg xmlns="http://www.w3.org/2000/svg" width="21" height="21" viewBox="0 0 21 21">
  <g id="whatsapp" transform="translate(0.5 0.5)">
    <path id="Vector" d="M10,20A9.993,9.993,0,1,0,.936,14.229l-.713,4.4a1,1,0,0,0,1.152,1.146l4.355-.726A9.96,9.96,0,0,0,10,20Z" fill="#4fcc21" stroke="rgba(0,0,0,0)" stroke-width="1" opacity="0.4"/>
    <path id="Rectangle_61" data-name="Rectangle 61" d="M8,7.111V6.675a1.325,1.325,0,0,0-.833-1.23L6.7,5.258a1.08,1.08,0,0,0-1.14.215.606.606,0,0,1-.593.2A4.359,4.359,0,0,1,3.333,4.667,4.359,4.359,0,0,1,2.328,3.033a.606.606,0,0,1,.2-.593A1.08,1.08,0,0,0,2.742,1.3L2.555.833A1.325,1.325,0,0,0,1.325,0H.889A.889.889,0,0,0,0,.889,7.111,7.111,0,0,0,7.111,8,.889.889,0,0,0,8,7.111Z" transform="translate(6 6)" fill="#4fcc21" stroke="rgba(0,0,0,0)" stroke-width="1"/>
  </g>
</svg>
